<svg width="24" height="24" viewBox="0 0 24 24" fill="none" xmlns="http://www.w3.org/2000/svg">
<path fill-rule="evenodd" clip-rule="evenodd" d="M20.1778 20.4718H3.82449C3.62 20.4718 3.45295 20.3134 3.43855 20.1089L2.97486 12.4363C2.96621 12.3298 3.00366 12.2261 3.07854 12.1483C3.15054 12.0705 3.25135 12.0273 3.35791 12.0273H20.6415C20.748 12.0273 20.8488 12.0705 20.9237 12.1483C20.9957 12.2261 21.0332 12.3298 21.0274 12.4363L20.5608 20.1089C20.5493 20.3134 20.3794 20.4718 20.1778 20.4718ZM4.18738 19.7H19.8149L20.2325 12.7963H3.76689L4.18738 19.7Z" fill="#99AF61"></path>
<path fill-rule="evenodd" clip-rule="evenodd" d="M16.0304 22.2405H7.96899C7.75586 22.2405 7.58594 22.0676 7.58594 21.8545V20.0861C7.58594 19.873 7.75586 19.7002 7.96899 19.7002H16.0304C16.2436 19.7002 16.4164 19.873 16.4164 20.0861V21.8545C16.4164 22.0676 16.2436 22.2405 16.0304 22.2405ZM8.35493 21.4715H15.6445V20.4721H8.35493V21.4715Z" fill="#99AF61"></path>
<path fill-rule="evenodd" clip-rule="evenodd" d="M12.238 11.0138H9.55949C9.41837 11.0138 9.28876 10.936 9.21964 10.8121L6.06303 4.91943C5.99967 4.79847 6.00255 4.65446 6.07167 4.53926C6.1408 4.42117 6.26752 4.35205 6.40289 4.35205H9.08139C9.22252 4.35205 9.35213 4.42981 9.42125 4.55366L12.5779 10.4464C12.6412 10.5673 12.6383 10.7113 12.5692 10.8266C12.5001 10.9418 12.3734 11.0138 12.238 11.0138ZM9.7899 10.2448H11.5957L8.85099 5.12104H7.04515L9.7899 10.2448Z" fill="#99AF61"></path>
<path fill-rule="evenodd" clip-rule="evenodd" d="M17.286 15.6449H6.71308C6.49996 15.6449 6.32715 15.4721 6.32715 15.259C6.32715 15.0459 6.49996 14.873 6.71308 14.873H17.286C17.4991 14.873 17.6719 15.0459 17.6719 15.259C17.6719 15.4721 17.4991 15.6449 17.286 15.6449Z" fill="#99AF61"></path>
<path fill-rule="evenodd" clip-rule="evenodd" d="M17.286 17.6235H6.71308C6.49996 17.6235 6.32715 17.4507 6.32715 17.2375C6.32715 17.0273 6.49996 16.8545 6.71308 16.8545H17.286C17.4991 16.8545 17.6719 17.0273 17.6719 17.2375C17.6719 17.4507 17.4991 17.6235 17.286 17.6235Z" fill="#99AF61"></path>
<path fill-rule="evenodd" clip-rule="evenodd" d="M20.5242 8.89693C19.7638 8.89693 19.0927 8.62332 18.583 8.10489C17.9032 7.41079 17.5087 6.28466 17.4136 4.76108C17.4079 4.64876 17.4482 4.54219 17.526 4.46443C17.6037 4.38667 17.7132 4.34634 17.8226 4.3521C19.6688 4.46731 20.9187 5.01453 21.5408 5.97649C22.2925 7.14294 21.8087 8.44763 21.7885 8.50235C21.7482 8.60603 21.6676 8.68668 21.5639 8.727C21.5466 8.73276 21.1059 8.89693 20.5242 8.89693ZM18.2201 5.15854C18.4361 7.10261 19.2281 8.12794 20.5242 8.12794C20.769 8.12794 20.9792 8.09049 21.1175 8.05593C21.1952 7.73336 21.296 7.01333 20.8899 6.38835C20.4521 5.71728 19.5564 5.30542 18.2201 5.15854Z" fill="#99AF61"></path>
<path fill-rule="evenodd" clip-rule="evenodd" d="M13.5334 8.89674C13.0784 8.89674 12.7414 8.77578 12.7039 8.76138C12.6031 8.72105 12.5196 8.64041 12.4822 8.53673C12.4649 8.49352 12.0818 7.4538 12.6809 6.52353C13.1705 5.76318 14.1526 5.33116 15.5927 5.24187C15.7021 5.23323 15.8116 5.27356 15.8894 5.35132C15.9671 5.43196 16.0074 5.53853 16.0017 5.64797C15.9268 6.83746 15.6186 7.71589 15.0829 8.26312C14.6739 8.67785 14.1411 8.89674 13.5334 8.89674ZM13.1561 8.08743C13.254 8.10759 13.3837 8.12775 13.5334 8.12775C14.6451 8.12775 15.0541 7.08227 15.1895 6.05119C14.2678 6.17215 13.6285 6.47744 13.3261 6.94114C13.0582 7.35876 13.1043 7.83686 13.1561 8.08743Z" fill="#99AF61"></path>
<path fill-rule="evenodd" clip-rule="evenodd" d="M4.52788 9.17894C3.70129 9.17894 3.02734 8.50788 3.02734 7.6784C3.02734 6.85181 3.70129 6.18074 4.52788 6.18074C5.35448 6.18074 6.02842 6.85181 6.02842 7.6784C6.02842 8.50788 5.35448 9.17894 4.52788 9.17894ZM12.0594 5.34839C11.0715 5.34839 10.2651 4.54484 10.2651 3.55408C10.2651 2.5662 11.0715 1.75977 12.0594 1.75977C13.0501 1.75977 13.8537 2.5662 13.8537 3.55408C13.8537 4.54484 13.0501 5.34839 12.0594 5.34839Z" fill="#99AF61"></path>
<path fill-rule="evenodd" clip-rule="evenodd" d="M2.81055 12.0275H21.1886V11.0137H2.81055V12.0275Z" fill="#99AF61"></path>
<path fill-rule="evenodd" clip-rule="evenodd" d="M21.5749 12.7964H2.42793C2.2148 12.7964 2.04199 12.6265 2.04199 12.4134V10.6277C2.04199 10.4174 2.2148 10.2446 2.42793 10.2446H21.5749C21.7881 10.2446 21.9609 10.4174 21.9609 10.6277V12.4134C21.958 12.6265 21.7881 12.7964 21.5749 12.7964Z" fill="#99AF61"></path>
</svg>