<svg width="24" height="24" viewBox="0 0 24 24" fill="none" xmlns="http://www.w3.org/2000/svg">
<g clip-path="url(#clip0_221124_1764)">
<path d="M1.5 23.25H14.25C14.6625 23.25 15 22.9125 15 22.5V13.875C15 13.4625 14.6625 13.125 14.25 13.125H10.875V11.25C10.875 11.025 10.725 10.875 10.5 10.875H9.975L14.1 2.175C14.175 1.9875 14.1 1.7625 13.9125 1.6875L12.5625 1.0125C12.4875 0.975 12.375 0.975 12.2625 0.975C12.15 1.0125 12.075 1.0875 12.0375 1.1625L9 7.9125V1.125C9 0.9 8.85 0.75 8.625 0.75H7.125C6.9 0.75 6.75 0.9 6.75 1.125V8.7L3.3 1.1625C3.2625 1.0875 3.15 1.0125 3.075 0.975C2.9625 0.9375 2.8875 0.9375 2.775 0.975L1.425 1.65C1.275 1.7625 1.2 1.9875 1.275 2.175L5.4 10.875H5.25C5.025 10.875 4.875 11.025 4.875 11.25V13.125H1.5C1.0875 13.125 0.75 13.4625 0.75 13.875V22.5C0.75 22.9125 1.0875 23.25 1.5 23.25ZM1.5 22.5V17.1C2.475 16.3875 3.7875 16.3875 4.8 17.0625L4.875 17.1375V21C4.875 21.225 5.025 21.375 5.25 21.375H10.5C10.725 21.375 10.875 21.225 10.875 21V18.7125C11.4 18.975 11.9625 19.125 12.5625 19.125C13.1625 19.125 13.725 18.975 14.25 18.7125V22.5H1.5ZM5.625 20.625V15.75H10.125V20.625H5.625ZM12.6 1.8375L13.275 2.175L9.15 10.875H8.475L12.6 1.8375ZM7.5 1.5H8.25V9.525L7.6875 10.7625L7.5 10.35V1.5ZM2.1 2.175L2.775 1.8375L6.9 10.875H6.225L2.1 2.175ZM5.625 11.625H10.125V13.125H5.625V11.625ZM14.25 13.875V17.8125L14.175 17.8875C13.1625 18.5625 11.85 18.525 10.875 17.85V15.375C10.875 15.15 10.725 15 10.5 15H5.25C5.025 15 4.875 15.15 4.875 15.375V16.2375C3.825 15.675 2.55 15.675 1.5 16.2375V13.875H14.25Z" fill="#99AF61"/>
<path d="M20.9629 9.075C21.1504 9.075 21.3379 9.0375 21.5254 8.9625C21.9379 8.8125 22.3129 8.5125 22.4629 8.1L23.2504 6.7125C23.4004 6.45 23.4379 6.15 23.3254 5.8875C23.2504 5.625 23.0254 5.4 22.8004 5.25C22.3129 5.025 21.7129 5.2125 21.4504 5.7L21.3379 5.925C21.3379 5.475 21.0379 5.1375 20.6254 4.9875C20.7379 5.025 20.8504 5.025 20.9629 5.025C21.1504 5.025 21.3379 4.9875 21.5254 4.9125C21.9379 4.7625 22.3129 4.4625 22.5004 4.0125L22.8754 3.1125C23.0254 2.85 23.0254 2.5875 22.9504 2.325C22.8754 2.0625 22.6504 1.8375 22.4254 1.6875C22.0504 1.5 21.6379 1.575 21.3379 1.8375C21.2629 1.3125 20.8504 0.9375 20.2879 0.9375C19.7629 0.9375 19.3504 1.3125 19.2754 1.8C18.9754 1.6125 18.6004 1.575 18.3004 1.725C18.0379 1.8375 17.8504 2.0625 17.7754 2.3625C17.7004 2.625 17.7004 2.925 17.8504 3.15L18.2254 4.05C18.4129 4.4625 18.7504 4.7625 19.2004 4.9125C19.3879 4.9875 19.5754 5.025 19.7629 5.025C19.8004 5.025 19.8754 5.025 19.9129 5.025V5.0625C19.6129 5.2125 19.3879 5.475 19.3129 5.8125L19.2379 5.7C18.9754 5.2125 18.3754 5.025 17.8879 5.25C17.6254 5.3625 17.4379 5.5875 17.3629 5.8875C17.2879 6.15 17.3254 6.45 17.4379 6.7125L18.2254 8.0625C18.4129 8.475 18.7504 8.775 19.2004 8.925C19.3879 9 19.5754 9.0375 19.7629 9.0375C19.8004 9.0375 19.8754 9.0375 19.9129 9.0375V10.05C19.6129 10.2 19.3879 10.4625 19.3129 10.8L19.2379 10.6875C18.9754 10.2 18.3754 10.0125 17.8879 10.2375C17.6254 10.35 17.4379 10.575 17.3629 10.875C17.2879 11.1375 17.3254 11.4375 17.4379 11.7L18.2254 13.05C18.4129 13.4625 18.7504 13.7625 19.2004 13.9125C19.2379 13.9125 19.2754 13.95 19.3129 13.95L18.7879 14.325L19.2379 14.925L19.8754 14.4375C19.6504 17.1 18.4879 19.575 16.5754 21.4875L15.5254 22.5375L16.0504 23.0625L17.1004 22.0125C17.4754 21.6375 17.8129 21.2625 18.1129 20.85C18.7879 20.5125 22.2754 18.75 22.6504 17.175C22.7254 16.8375 22.6879 16.5 22.4629 16.2C22.3504 16.0875 22.2379 16.0125 22.0504 16.0125C21.6004 16.0125 20.7754 16.725 19.9129 17.6625C20.3254 16.6125 20.5504 15.4875 20.6254 14.325L21.4504 14.925L21.9004 14.325L21.4129 13.95C21.4879 13.95 21.5254 13.9125 21.6004 13.9125C22.0129 13.7625 22.3879 13.4625 22.5379 13.05L23.3254 11.6625C23.4754 11.4 23.5129 11.1 23.4004 10.8375C23.3254 10.575 23.1004 10.35 22.8754 10.2C22.3879 9.975 21.7879 10.1625 21.5254 10.65L21.4129 10.875C21.4129 10.425 21.1129 10.0875 20.7004 9.9375V8.925C20.7379 9.0375 20.8504 9.075 20.9629 9.075ZM21.9004 16.875C21.9004 16.95 21.9004 16.9875 21.9004 17.0625C21.7504 17.7 20.6254 18.5625 19.4629 19.3125C20.4754 18.15 21.4504 17.1375 21.9004 16.875ZM22.1254 6.075C22.2004 5.925 22.3504 5.8875 22.5004 5.9625C22.5754 6 22.6129 6.0375 22.6504 6.1125C22.6879 6.1875 22.6504 6.2625 22.6129 6.3375L21.8254 7.7625C21.7129 7.9875 21.5254 8.175 21.3004 8.25C21.1879 8.2875 21.0754 8.325 20.9629 8.325L22.1254 6.075ZM22.0879 2.475C22.1629 2.5125 22.2004 2.55 22.2379 2.625C22.2754 2.7 22.2379 2.775 22.2004 2.85C22.2004 2.85 22.2004 2.8875 22.1629 2.8875L21.7879 3.7875C21.6754 4.0125 21.4879 4.2 21.2629 4.275C21.1504 4.3125 21.0379 4.35 20.8879 4.3125L21.7129 2.5875C21.7879 2.4375 21.9379 2.4 22.0879 2.475ZM20.2879 1.7625C20.4379 1.7625 20.5504 1.875 20.5504 2.025V3.225L20.2879 3.75L19.9504 3.0375V2.025C19.9879 1.875 20.1379 1.7625 20.2879 1.7625ZM19.3879 4.275C19.1629 4.2 18.9379 4.0125 18.8629 3.7875L18.4879 2.8875C18.4879 2.8875 18.4879 2.85 18.4504 2.85C18.4129 2.775 18.4129 2.7 18.4129 2.625C18.4504 2.55 18.4879 2.475 18.5629 2.475C18.6004 2.475 18.6379 2.4375 18.6754 2.4375C18.7879 2.4375 18.8629 2.475 18.9004 2.55L19.7254 4.3125C19.6504 4.3125 19.5379 4.3125 19.3879 4.275ZM19.9879 6C19.9879 5.85 20.1004 5.7375 20.2879 5.7375C20.4379 5.7375 20.5504 5.85 20.5504 6V7.35L20.2879 7.8L19.9504 7.1625V6H19.9879ZM19.3879 8.25C19.1629 8.175 18.9379 7.9875 18.8254 7.725L18.0754 6.375C18.0379 6.3 18.0379 6.225 18.0379 6.15C18.0754 6.075 18.1129 6 18.1879 6C18.2254 6 18.2629 5.9625 18.3004 5.9625C18.4129 5.9625 18.4879 6 18.5629 6.1125L19.7629 8.325C19.6129 8.325 19.5004 8.2875 19.3879 8.25ZM18.8629 12.75L18.0754 11.3625C18.0379 11.2875 18.0379 11.2125 18.0379 11.1375C18.0754 11.0625 18.1129 10.9875 18.1879 10.9875C18.2254 10.9875 18.2629 10.95 18.3004 10.95C18.4129 10.95 18.4879 10.9875 18.5629 11.1L19.7629 13.3125C19.6504 13.3125 19.5379 13.3125 19.4254 13.2375C19.1629 13.1625 18.9754 12.975 18.8629 12.75ZM22.1254 11.0625C22.2004 10.9125 22.3504 10.875 22.5004 10.95C22.5754 10.9875 22.6129 11.025 22.6504 11.1C22.6879 11.175 22.6504 11.25 22.6129 11.325L21.8254 12.75C21.7129 12.975 21.5254 13.1625 21.3004 13.2375C21.1879 13.275 21.0754 13.275 20.9629 13.3125L22.1254 11.0625ZM20.3254 12.825L19.9879 12.1875V10.9875C19.9879 10.8375 20.1004 10.725 20.2879 10.725C20.4379 10.725 20.5504 10.8375 20.5504 10.9875V12.375L20.3254 12.825Z" fill="#99AF61"/>
<path d="M13.125 7.5H12.375V8.25H13.125V7.5Z" fill="#99AF61"/>
<path d="M13.875 6.75H13.125V7.5H13.875V6.75Z" fill="#99AF61"/>
<path d="M14.625 7.5H13.875V8.25H14.625V7.5Z" fill="#99AF61"/>
<path d="M13.875 8.25H13.125V9H13.875V8.25Z" fill="#99AF61"/>
<path d="M15 10.875H14.25V11.625H15V10.875Z" fill="#99AF61"/>
<path d="M15.75 10.125H15V10.875H15.75V10.125Z" fill="#99AF61"/>
<path d="M16.5 10.875H15.75V11.625H16.5V10.875Z" fill="#99AF61"/>
<path d="M15.75 11.625H15V12.375H15.75V11.625Z" fill="#99AF61"/>
<path d="M1.5 10.125H0.75V10.875H1.5V10.125Z" fill="#99AF61"/>
<path d="M2.25 9.375H1.5V10.125H2.25V9.375Z" fill="#99AF61"/>
<path d="M3 10.125H2.25V10.875H3V10.125Z" fill="#99AF61"/>
<path d="M2.25 10.875H1.5V11.625H2.25V10.875Z" fill="#99AF61"/>
<g clip-path="url(#clip1_221124_1764)">
<path d="M1.5 23.25H14.25C14.6625 23.25 15 22.9125 15 22.5V13.875C15 13.4625 14.6625 13.125 14.25 13.125H10.875V11.25C10.875 11.025 10.725 10.875 10.5 10.875H9.975L14.1 2.175C14.175 1.9875 14.1 1.7625 13.9125 1.6875L12.5625 1.0125C12.4875 0.975 12.375 0.975 12.2625 0.975C12.15 1.0125 12.075 1.0875 12.0375 1.1625L9 7.9125V1.125C9 0.9 8.85 0.75 8.625 0.75H7.125C6.9 0.75 6.75 0.9 6.75 1.125V8.7L3.3 1.1625C3.2625 1.0875 3.15 1.0125 3.075 0.975C2.9625 0.9375 2.8875 0.9375 2.775 0.975L1.425 1.65C1.275 1.7625 1.2 1.9875 1.275 2.175L5.4 10.875H5.25C5.025 10.875 4.875 11.025 4.875 11.25V13.125H1.5C1.0875 13.125 0.75 13.4625 0.75 13.875V22.5C0.75 22.9125 1.0875 23.25 1.5 23.25ZM1.5 22.5V17.1C2.475 16.3875 3.7875 16.3875 4.8 17.0625L4.875 17.1375V21C4.875 21.225 5.025 21.375 5.25 21.375H10.5C10.725 21.375 10.875 21.225 10.875 21V18.7125C11.4 18.975 11.9625 19.125 12.5625 19.125C13.1625 19.125 13.725 18.975 14.25 18.7125V22.5H1.5ZM5.625 20.625V15.75H10.125V20.625H5.625ZM12.6 1.8375L13.275 2.175L9.15 10.875H8.475L12.6 1.8375ZM7.5 1.5H8.25V9.525L7.6875 10.7625L7.5 10.35V1.5ZM2.1 2.175L2.775 1.8375L6.9 10.875H6.225L2.1 2.175ZM5.625 11.625H10.125V13.125H5.625V11.625ZM14.25 13.875V17.8125L14.175 17.8875C13.1625 18.5625 11.85 18.525 10.875 17.85V15.375C10.875 15.15 10.725 15 10.5 15H5.25C5.025 15 4.875 15.15 4.875 15.375V16.2375C3.825 15.675 2.55 15.675 1.5 16.2375V13.875H14.25Z" fill="#99AF61"/>
<path d="M20.9629 9.075C21.1504 9.075 21.3379 9.0375 21.5254 8.9625C21.9379 8.8125 22.3129 8.5125 22.4629 8.1L23.2504 6.7125C23.4004 6.45 23.4379 6.15 23.3254 5.8875C23.2504 5.625 23.0254 5.4 22.8004 5.25C22.3129 5.025 21.7129 5.2125 21.4504 5.7L21.3379 5.925C21.3379 5.475 21.0379 5.1375 20.6254 4.9875C20.7379 5.025 20.8504 5.025 20.9629 5.025C21.1504 5.025 21.3379 4.9875 21.5254 4.9125C21.9379 4.7625 22.3129 4.4625 22.5004 4.0125L22.8754 3.1125C23.0254 2.85 23.0254 2.5875 22.9504 2.325C22.8754 2.0625 22.6504 1.8375 22.4254 1.6875C22.0504 1.5 21.6379 1.575 21.3379 1.8375C21.2629 1.3125 20.8504 0.9375 20.2879 0.9375C19.7629 0.9375 19.3504 1.3125 19.2754 1.8C18.9754 1.6125 18.6004 1.575 18.3004 1.725C18.0379 1.8375 17.8504 2.0625 17.7754 2.3625C17.7004 2.625 17.7004 2.925 17.8504 3.15L18.2254 4.05C18.4129 4.4625 18.7504 4.7625 19.2004 4.9125C19.3879 4.9875 19.5754 5.025 19.7629 5.025C19.8004 5.025 19.8754 5.025 19.9129 5.025V5.0625C19.6129 5.2125 19.3879 5.475 19.3129 5.8125L19.2379 5.7C18.9754 5.2125 18.3754 5.025 17.8879 5.25C17.6254 5.3625 17.4379 5.5875 17.3629 5.8875C17.2879 6.15 17.3254 6.45 17.4379 6.7125L18.2254 8.0625C18.4129 8.475 18.7504 8.775 19.2004 8.925C19.3879 9 19.5754 9.0375 19.7629 9.0375C19.8004 9.0375 19.8754 9.0375 19.9129 9.0375V10.05C19.6129 10.2 19.3879 10.4625 19.3129 10.8L19.2379 10.6875C18.9754 10.2 18.3754 10.0125 17.8879 10.2375C17.6254 10.35 17.4379 10.575 17.3629 10.875C17.2879 11.1375 17.3254 11.4375 17.4379 11.7L18.2254 13.05C18.4129 13.4625 18.7504 13.7625 19.2004 13.9125C19.2379 13.9125 19.2754 13.95 19.3129 13.95L18.7879 14.325L19.2379 14.925L19.8754 14.4375C19.6504 17.1 18.4879 19.575 16.5754 21.4875L15.5254 22.5375L16.0504 23.0625L17.1004 22.0125C17.4754 21.6375 17.8129 21.2625 18.1129 20.85C18.7879 20.5125 22.2754 18.75 22.6504 17.175C22.7254 16.8375 22.6879 16.5 22.4629 16.2C22.3504 16.0875 22.2379 16.0125 22.0504 16.0125C21.6004 16.0125 20.7754 16.725 19.9129 17.6625C20.3254 16.6125 20.5504 15.4875 20.6254 14.325L21.4504 14.925L21.9004 14.325L21.4129 13.95C21.4879 13.95 21.5254 13.9125 21.6004 13.9125C22.0129 13.7625 22.3879 13.4625 22.5379 13.05L23.3254 11.6625C23.4754 11.4 23.5129 11.1 23.4004 10.8375C23.3254 10.575 23.1004 10.35 22.8754 10.2C22.3879 9.975 21.7879 10.1625 21.5254 10.65L21.4129 10.875C21.4129 10.425 21.1129 10.0875 20.7004 9.9375V8.925C20.7379 9.0375 20.8504 9.075 20.9629 9.075ZM21.9004 16.875C21.9004 16.95 21.9004 16.9875 21.9004 17.0625C21.7504 17.7 20.6254 18.5625 19.4629 19.3125C20.4754 18.15 21.4504 17.1375 21.9004 16.875ZM22.1254 6.075C22.2004 5.925 22.3504 5.8875 22.5004 5.9625C22.5754 6 22.6129 6.0375 22.6504 6.1125C22.6879 6.1875 22.6504 6.2625 22.6129 6.3375L21.8254 7.7625C21.7129 7.9875 21.5254 8.175 21.3004 8.25C21.1879 8.2875 21.0754 8.325 20.9629 8.325L22.1254 6.075ZM22.0879 2.475C22.1629 2.5125 22.2004 2.55 22.2379 2.625C22.2754 2.7 22.2379 2.775 22.2004 2.85C22.2004 2.85 22.2004 2.8875 22.1629 2.8875L21.7879 3.7875C21.6754 4.0125 21.4879 4.2 21.2629 4.275C21.1504 4.3125 21.0379 4.35 20.8879 4.3125L21.7129 2.5875C21.7879 2.4375 21.9379 2.4 22.0879 2.475ZM20.2879 1.7625C20.4379 1.7625 20.5504 1.875 20.5504 2.025V3.225L20.2879 3.75L19.9504 3.0375V2.025C19.9879 1.875 20.1379 1.7625 20.2879 1.7625ZM19.3879 4.275C19.1629 4.2 18.9379 4.0125 18.8629 3.7875L18.4879 2.8875C18.4879 2.8875 18.4879 2.85 18.4504 2.85C18.4129 2.775 18.4129 2.7 18.4129 2.625C18.4504 2.55 18.4879 2.475 18.5629 2.475C18.6004 2.475 18.6379 2.4375 18.6754 2.4375C18.7879 2.4375 18.8629 2.475 18.9004 2.55L19.7254 4.3125C19.6504 4.3125 19.5379 4.3125 19.3879 4.275ZM19.9879 6C19.9879 5.85 20.1004 5.7375 20.2879 5.7375C20.4379 5.7375 20.5504 5.85 20.5504 6V7.35L20.2879 7.8L19.9504 7.1625V6H19.9879ZM19.3879 8.25C19.1629 8.175 18.9379 7.9875 18.8254 7.725L18.0754 6.375C18.0379 6.3 18.0379 6.225 18.0379 6.15C18.0754 6.075 18.1129 6 18.1879 6C18.2254 6 18.2629 5.9625 18.3004 5.9625C18.4129 5.9625 18.4879 6 18.5629 6.1125L19.7629 8.325C19.6129 8.325 19.5004 8.2875 19.3879 8.25ZM18.8629 12.75L18.0754 11.3625C18.0379 11.2875 18.0379 11.2125 18.0379 11.1375C18.0754 11.0625 18.1129 10.9875 18.1879 10.9875C18.2254 10.9875 18.2629 10.95 18.3004 10.95C18.4129 10.95 18.4879 10.9875 18.5629 11.1L19.7629 13.3125C19.6504 13.3125 19.5379 13.3125 19.4254 13.2375C19.1629 13.1625 18.9754 12.975 18.8629 12.75ZM22.1254 11.0625C22.2004 10.9125 22.3504 10.875 22.5004 10.95C22.5754 10.9875 22.6129 11.025 22.6504 11.1C22.6879 11.175 22.6504 11.25 22.6129 11.325L21.8254 12.75C21.7129 12.975 21.5254 13.1625 21.3004 13.2375C21.1879 13.275 21.0754 13.275 20.9629 13.3125L22.1254 11.0625ZM20.3254 12.825L19.9879 12.1875V10.9875C19.9879 10.8375 20.1004 10.725 20.2879 10.725C20.4379 10.725 20.5504 10.8375 20.5504 10.9875V12.375L20.3254 12.825Z" fill="#99AF61"/>
<path d="M13.125 7.5H12.375V8.25H13.125V7.5Z" fill="#99AF61"/>
<path d="M13.875 6.75H13.125V7.5H13.875V6.75Z" fill="#99AF61"/>
<path d="M14.625 7.5H13.875V8.25H14.625V7.5Z" fill="#99AF61"/>
<path d="M13.875 8.25H13.125V9H13.875V8.25Z" fill="#99AF61"/>
<path d="M15 10.875H14.25V11.625H15V10.875Z" fill="#99AF61"/>
<path d="M15.75 10.125H15V10.875H15.75V10.125Z" fill="#99AF61"/>
<path d="M16.5 10.875H15.75V11.625H16.5V10.875Z" fill="#99AF61"/>
<path d="M15.75 11.625H15V12.375H15.75V11.625Z" fill="#99AF61"/>
<path d="M1.5 10.125H0.75V10.875H1.5V10.125Z" fill="#99AF61"/>
<path d="M2.25 9.375H1.5V10.125H2.25V9.375Z" fill="#99AF61"/>
<path d="M3 10.125H2.25V10.875H3V10.125Z" fill="#99AF61"/>
<path d="M2.25 10.875H1.5V11.625H2.25V10.875Z" fill="#99AF61"/>
</g>
<g clip-path="url(#clip2_221124_1764)">
<path d="M1.5 23.25H14.25C14.6625 23.25 15 22.9125 15 22.5V13.875C15 13.4625 14.6625 13.125 14.25 13.125H10.875V11.25C10.875 11.025 10.725 10.875 10.5 10.875H9.975L14.1 2.175C14.175 1.9875 14.1 1.7625 13.9125 1.6875L12.5625 1.0125C12.4875 0.975 12.375 0.975 12.2625 0.975C12.15 1.0125 12.075 1.0875 12.0375 1.1625L9 7.9125V1.125C9 0.9 8.85 0.75 8.625 0.75H7.125C6.9 0.75 6.75 0.9 6.75 1.125V8.7L3.3 1.1625C3.2625 1.0875 3.15 1.0125 3.075 0.975C2.9625 0.9375 2.8875 0.9375 2.775 0.975L1.425 1.65C1.275 1.7625 1.2 1.9875 1.275 2.175L5.4 10.875H5.25C5.025 10.875 4.875 11.025 4.875 11.25V13.125H1.5C1.0875 13.125 0.75 13.4625 0.75 13.875V22.5C0.75 22.9125 1.0875 23.25 1.5 23.25ZM1.5 22.5V17.1C2.475 16.3875 3.7875 16.3875 4.8 17.0625L4.875 17.1375V21C4.875 21.225 5.025 21.375 5.25 21.375H10.5C10.725 21.375 10.875 21.225 10.875 21V18.7125C11.4 18.975 11.9625 19.125 12.5625 19.125C13.1625 19.125 13.725 18.975 14.25 18.7125V22.5H1.5ZM5.625 20.625V15.75H10.125V20.625H5.625ZM12.6 1.8375L13.275 2.175L9.15 10.875H8.475L12.6 1.8375ZM7.5 1.5H8.25V9.525L7.6875 10.7625L7.5 10.35V1.5ZM2.1 2.175L2.775 1.8375L6.9 10.875H6.225L2.1 2.175ZM5.625 11.625H10.125V13.125H5.625V11.625ZM14.25 13.875V17.8125L14.175 17.8875C13.1625 18.5625 11.85 18.525 10.875 17.85V15.375C10.875 15.15 10.725 15 10.5 15H5.25C5.025 15 4.875 15.15 4.875 15.375V16.2375C3.825 15.675 2.55 15.675 1.5 16.2375V13.875H14.25Z" fill="#99AF61"/>
<path d="M20.9629 9.075C21.1504 9.075 21.3379 9.0375 21.5254 8.9625C21.9379 8.8125 22.3129 8.5125 22.4629 8.1L23.2504 6.7125C23.4004 6.45 23.4379 6.15 23.3254 5.8875C23.2504 5.625 23.0254 5.4 22.8004 5.25C22.3129 5.025 21.7129 5.2125 21.4504 5.7L21.3379 5.925C21.3379 5.475 21.0379 5.1375 20.6254 4.9875C20.7379 5.025 20.8504 5.025 20.9629 5.025C21.1504 5.025 21.3379 4.9875 21.5254 4.9125C21.9379 4.7625 22.3129 4.4625 22.5004 4.0125L22.8754 3.1125C23.0254 2.85 23.0254 2.5875 22.9504 2.325C22.8754 2.0625 22.6504 1.8375 22.4254 1.6875C22.0504 1.5 21.6379 1.575 21.3379 1.8375C21.2629 1.3125 20.8504 0.9375 20.2879 0.9375C19.7629 0.9375 19.3504 1.3125 19.2754 1.8C18.9754 1.6125 18.6004 1.575 18.3004 1.725C18.0379 1.8375 17.8504 2.0625 17.7754 2.3625C17.7004 2.625 17.7004 2.925 17.8504 3.15L18.2254 4.05C18.4129 4.4625 18.7504 4.7625 19.2004 4.9125C19.3879 4.9875 19.5754 5.025 19.7629 5.025C19.8004 5.025 19.8754 5.025 19.9129 5.025V5.0625C19.6129 5.2125 19.3879 5.475 19.3129 5.8125L19.2379 5.7C18.9754 5.2125 18.3754 5.025 17.8879 5.25C17.6254 5.3625 17.4379 5.5875 17.3629 5.8875C17.2879 6.15 17.3254 6.45 17.4379 6.7125L18.2254 8.0625C18.4129 8.475 18.7504 8.775 19.2004 8.925C19.3879 9 19.5754 9.0375 19.7629 9.0375C19.8004 9.0375 19.8754 9.0375 19.9129 9.0375V10.05C19.6129 10.2 19.3879 10.4625 19.3129 10.8L19.2379 10.6875C18.9754 10.2 18.3754 10.0125 17.8879 10.2375C17.6254 10.35 17.4379 10.575 17.3629 10.875C17.2879 11.1375 17.3254 11.4375 17.4379 11.7L18.2254 13.05C18.4129 13.4625 18.7504 13.7625 19.2004 13.9125C19.2379 13.9125 19.2754 13.95 19.3129 13.95L18.7879 14.325L19.2379 14.925L19.8754 14.4375C19.6504 17.1 18.4879 19.575 16.5754 21.4875L15.5254 22.5375L16.0504 23.0625L17.1004 22.0125C17.4754 21.6375 17.8129 21.2625 18.1129 20.85C18.7879 20.5125 22.2754 18.75 22.6504 17.175C22.7254 16.8375 22.6879 16.5 22.4629 16.2C22.3504 16.0875 22.2379 16.0125 22.0504 16.0125C21.6004 16.0125 20.7754 16.725 19.9129 17.6625C20.3254 16.6125 20.5504 15.4875 20.6254 14.325L21.4504 14.925L21.9004 14.325L21.4129 13.95C21.4879 13.95 21.5254 13.9125 21.6004 13.9125C22.0129 13.7625 22.3879 13.4625 22.5379 13.05L23.3254 11.6625C23.4754 11.4 23.5129 11.1 23.4004 10.8375C23.3254 10.575 23.1004 10.35 22.8754 10.2C22.3879 9.975 21.7879 10.1625 21.5254 10.65L21.4129 10.875C21.4129 10.425 21.1129 10.0875 20.7004 9.9375V8.925C20.7379 9.0375 20.8504 9.075 20.9629 9.075ZM21.9004 16.875C21.9004 16.95 21.9004 16.9875 21.9004 17.0625C21.7504 17.7 20.6254 18.5625 19.4629 19.3125C20.4754 18.15 21.4504 17.1375 21.9004 16.875ZM22.1254 6.075C22.2004 5.925 22.3504 5.8875 22.5004 5.9625C22.5754 6 22.6129 6.0375 22.6504 6.1125C22.6879 6.1875 22.6504 6.2625 22.6129 6.3375L21.8254 7.7625C21.7129 7.9875 21.5254 8.175 21.3004 8.25C21.1879 8.2875 21.0754 8.325 20.9629 8.325L22.1254 6.075ZM22.0879 2.475C22.1629 2.5125 22.2004 2.55 22.2379 2.625C22.2754 2.7 22.2379 2.775 22.2004 2.85C22.2004 2.85 22.2004 2.8875 22.1629 2.8875L21.7879 3.7875C21.6754 4.0125 21.4879 4.2 21.2629 4.275C21.1504 4.3125 21.0379 4.35 20.8879 4.3125L21.7129 2.5875C21.7879 2.4375 21.9379 2.4 22.0879 2.475ZM20.2879 1.7625C20.4379 1.7625 20.5504 1.875 20.5504 2.025V3.225L20.2879 3.75L19.9504 3.0375V2.025C19.9879 1.875 20.1379 1.7625 20.2879 1.7625ZM19.3879 4.275C19.1629 4.2 18.9379 4.0125 18.8629 3.7875L18.4879 2.8875C18.4879 2.8875 18.4879 2.85 18.4504 2.85C18.4129 2.775 18.4129 2.7 18.4129 2.625C18.4504 2.55 18.4879 2.475 18.5629 2.475C18.6004 2.475 18.6379 2.4375 18.6754 2.4375C18.7879 2.4375 18.8629 2.475 18.9004 2.55L19.7254 4.3125C19.6504 4.3125 19.5379 4.3125 19.3879 4.275ZM19.9879 6C19.9879 5.85 20.1004 5.7375 20.2879 5.7375C20.4379 5.7375 20.5504 5.85 20.5504 6V7.35L20.2879 7.8L19.9504 7.1625V6H19.9879ZM19.3879 8.25C19.1629 8.175 18.9379 7.9875 18.8254 7.725L18.0754 6.375C18.0379 6.3 18.0379 6.225 18.0379 6.15C18.0754 6.075 18.1129 6 18.1879 6C18.2254 6 18.2629 5.9625 18.3004 5.9625C18.4129 5.9625 18.4879 6 18.5629 6.1125L19.7629 8.325C19.6129 8.325 19.5004 8.2875 19.3879 8.25ZM18.8629 12.75L18.0754 11.3625C18.0379 11.2875 18.0379 11.2125 18.0379 11.1375C18.0754 11.0625 18.1129 10.9875 18.1879 10.9875C18.2254 10.9875 18.2629 10.95 18.3004 10.95C18.4129 10.95 18.4879 10.9875 18.5629 11.1L19.7629 13.3125C19.6504 13.3125 19.5379 13.3125 19.4254 13.2375C19.1629 13.1625 18.9754 12.975 18.8629 12.75ZM22.1254 11.0625C22.2004 10.9125 22.3504 10.875 22.5004 10.95C22.5754 10.9875 22.6129 11.025 22.6504 11.1C22.6879 11.175 22.6504 11.25 22.6129 11.325L21.8254 12.75C21.7129 12.975 21.5254 13.1625 21.3004 13.2375C21.1879 13.275 21.0754 13.275 20.9629 13.3125L22.1254 11.0625ZM20.3254 12.825L19.9879 12.1875V10.9875C19.9879 10.8375 20.1004 10.725 20.2879 10.725C20.4379 10.725 20.5504 10.8375 20.5504 10.9875V12.375L20.3254 12.825Z" fill="#99AF61"/>
<path d="M13.125 7.5H12.375V8.25H13.125V7.5Z" fill="#99AF61"/>
<path d="M13.875 6.75H13.125V7.5H13.875V6.75Z" fill="#99AF61"/>
<path d="M14.625 7.5H13.875V8.25H14.625V7.5Z" fill="#99AF61"/>
<path d="M13.875 8.25H13.125V9H13.875V8.25Z" fill="#99AF61"/>
<path d="M15 10.875H14.25V11.625H15V10.875Z" fill="#99AF61"/>
<path d="M15.75 10.125H15V10.875H15.75V10.125Z" fill="#99AF61"/>
<path d="M16.5 10.875H15.75V11.625H16.5V10.875Z" fill="#99AF61"/>
<path d="M15.75 11.625H15V12.375H15.75V11.625Z" fill="#99AF61"/>
<path d="M1.5 10.125H0.75V10.875H1.5V10.125Z" fill="#99AF61"/>
<path d="M2.25 9.375H1.5V10.125H2.25V9.375Z" fill="#99AF61"/>
<path d="M3 10.125H2.25V10.875H3V10.125Z" fill="#99AF61"/>
<path d="M2.25 10.875H1.5V11.625H2.25V10.875Z" fill="#99AF61"/>
</g>
</g>
<defs>
<clipPath id="clip0_221124_1764">
<rect width="24" height="24" fill="white"/>
</clipPath>
<clipPath id="clip1_221124_1764">
<rect width="24" height="24" fill="white"/>
</clipPath>
<clipPath id="clip2_221124_1764">
<rect width="24" height="24" fill="white"/>
</clipPath>
</defs>
</svg>
