<svg width="24" height="24" viewBox="0 0 24 24" fill="none" xmlns="http://www.w3.org/2000/svg">
<g clip-path="url(#clip0_221124_1850)">
<path d="M23.4176 9.03937L22.6676 8.66437C22.6156 8.63842 22.5582 8.62496 22.5 8.625H16.9204C16.6889 8.625 16.4626 8.69363 16.2701 8.82221C16.0776 8.9508 15.9276 9.13361 15.839 9.34747C15.7504 9.56134 15.7272 9.79669 15.7724 10.0237C15.8176 10.2508 15.9291 10.4593 16.0928 10.623L16.8521 11.3828L16.6646 12.7005C16.4712 12.8472 16.3139 13.0363 16.2049 13.2532L15.825 14.0081C15.0374 15.5895 14.6266 17.3318 14.625 19.0984C14.6252 20.1327 14.6987 21.1656 14.8447 22.1895C14.9033 22.5872 15.1025 22.9508 15.4062 23.2141C15.71 23.4775 16.098 23.6233 16.5 23.625H19.875C20.2728 23.625 20.6544 23.467 20.9356 23.1856C21.217 22.9044 21.375 22.5228 21.375 22.125V17.625C21.3758 17.3284 21.2873 17.0385 21.121 16.7928C20.9548 16.5472 20.7184 16.3574 20.4427 16.248L19.872 16.02C19.762 15.9764 19.6676 15.9007 19.6013 15.8027C19.5349 15.7047 19.4996 15.589 19.5 15.4706C19.5 15.4317 19.5037 15.3929 19.5112 15.3547L19.8544 13.6399C19.8992 13.4164 19.8701 13.1845 19.7714 12.979C19.6728 12.7735 19.51 12.6058 19.3076 12.501L19.2255 11.9276C19.5506 12.438 19.9819 12.8723 20.49 13.2009C20.9982 13.5295 21.5712 13.7448 22.17 13.8319L22.4471 13.8713C22.4646 13.8738 22.4823 13.875 22.5 13.875C22.5742 13.875 22.6466 13.853 22.7083 13.8118C22.77 13.7706 22.818 13.712 22.8464 13.6435C22.8747 13.575 22.8822 13.4996 22.8677 13.4269C22.8532 13.3541 22.8176 13.2873 22.7651 13.2349L22.326 12.7954C21.8076 12.2793 21.4804 11.6019 21.3986 10.875H22.5C22.5582 10.875 22.6156 10.8616 22.6676 10.8356L23.4176 10.4606C23.4799 10.4295 23.5324 10.3816 23.569 10.3223C23.6057 10.263 23.625 10.1947 23.625 10.125V9.375C23.625 9.30533 23.6057 9.237 23.569 9.17771C23.5324 9.11843 23.4799 9.07054 23.4176 9.03937ZM16.623 10.0927C16.5642 10.0339 16.5241 9.95902 16.5078 9.87746C16.4916 9.79586 16.4999 9.7113 16.5318 9.63446C16.5636 9.55763 16.6175 9.49196 16.6867 9.44576C16.7559 9.39956 16.8372 9.37496 16.9204 9.375H21.375V10.125H20.25C20.1918 10.125 20.1344 10.1384 20.0824 10.1644L18.6615 10.875H17.4053L16.623 10.0927ZM17.5751 11.625H18.4249L18.5321 12.375H17.625C17.572 12.376 17.519 12.3796 17.4664 12.3859L17.5751 11.625ZM15.375 19.0984C15.375 18.8569 15.3859 18.6158 15.4028 18.375H20.625V20.625H15.4309C15.3941 20.1161 15.375 19.6061 15.375 19.0984ZM19.875 22.875H16.5C16.2783 22.8741 16.0643 22.7937 15.8967 22.6484C15.7292 22.5032 15.6192 22.3027 15.5869 22.0834C15.5535 21.8482 15.5246 21.612 15.4988 21.375H20.625V22.125C20.625 22.3239 20.546 22.5147 20.4053 22.6553C20.2647 22.796 20.0739 22.875 19.875 22.875ZM19.5934 16.7164L20.1641 16.9448C20.3005 16.9986 20.4174 17.0923 20.4996 17.2137C20.5818 17.3351 20.6255 17.4784 20.625 17.625H15.483C15.642 16.4837 15.9846 15.3757 16.4974 14.3438L16.875 13.5885C16.9442 13.4489 17.0512 13.3315 17.1837 13.2495C17.3163 13.1676 17.4691 13.1245 17.625 13.125H18.8175C18.899 13.125 18.9771 13.1574 19.0348 13.2149C19.0924 13.2725 19.1249 13.3506 19.125 13.4321C19.1251 13.4524 19.1231 13.4726 19.119 13.4925L18.7759 15.2078C18.7146 15.5151 18.7628 15.8342 18.9121 16.1097C19.0614 16.3853 19.3025 16.5999 19.5934 16.7164ZM21.375 12.8325C20.6343 12.5075 20.0308 11.9334 19.6691 11.2099L20.3385 10.875H20.6441C20.7078 11.5812 20.9603 12.2573 21.375 12.8325ZM22.875 9.89325L22.4115 10.125H22.125V9.375H22.4115L22.875 9.60675V9.89325Z" fill="#99AF61"/>
<path d="M13.125 23.625C13.5228 23.625 13.9044 23.467 14.1856 23.1856C14.467 22.9044 14.625 22.5228 14.625 22.125C14.6251 20.5971 14.412 19.0767 13.992 17.6077L13.9256 17.3749C13.8732 17.1911 13.8613 16.998 13.8908 16.8092C13.9203 16.6203 13.9904 16.4401 14.0963 16.281L14.2721 16.0185C14.5349 15.6259 14.6572 15.1561 14.6191 14.6852C14.581 14.2144 14.3849 13.7703 14.0625 13.425L14.2297 10.5H14.625C14.7244 10.5 14.8198 10.4605 14.8902 10.3902C14.9605 10.3198 15 10.2244 15 10.125V7.875C15 7.77555 14.9605 7.68015 14.8902 7.60984C14.8198 7.53953 14.7244 7.5 14.625 7.5H14.25V5.625C14.247 4.76348 13.9981 3.92074 13.5325 3.19591C13.0668 2.47107 12.4039 1.89428 11.6216 1.53338C11.6216 1.52175 11.625 1.51125 11.625 1.5C11.625 1.20163 11.5065 0.915484 11.2955 0.704505C11.0845 0.493526 10.7983 0.375 10.5 0.375H5.25C4.95165 0.375 4.66549 0.493526 4.45451 0.704505C4.24354 0.915484 4.125 1.20163 4.125 1.5C4.125 1.51125 4.128 1.52175 4.12837 1.533C3.34612 1.89403 2.68322 2.47092 2.21761 3.19581C1.752 3.9207 1.50304 4.76348 1.5 5.625V7.5H1.125C1.02554 7.5 0.930161 7.53953 0.859834 7.60984C0.78951 7.68015 0.75 7.77555 0.75 7.875V10.125C0.75 10.2244 0.78951 10.3198 0.859834 10.3902C0.930161 10.4605 1.02554 10.5 1.125 10.5H1.52062L1.67438 13.1914C1.62171 13.224 1.57813 13.2694 1.54765 13.3233C1.51718 13.3773 1.50079 13.4381 1.5 13.5V14.625C1.40054 14.625 1.30516 14.6645 1.23483 14.7348C1.16451 14.8052 1.125 14.9006 1.125 15V16.4175C0.63336 17.4339 0.377014 18.548 0.375 19.677V22.125C0.375 22.5228 0.533036 22.9044 0.814339 23.1856C1.09565 23.467 1.47717 23.625 1.875 23.625H13.125ZM4.125 15.375V16.125H1.875V15.375H4.125ZM1.73925 16.875H4.36425L5.64563 17.943C6.00713 18.2442 6.25189 18.6623 6.3375 19.125H1.15088C1.21578 18.3467 1.41484 17.5855 1.73925 16.875ZM6.375 19.875V21.375H1.125V19.875H6.375ZM13.65 15.6L13.4741 15.8625C13.3079 16.1119 13.1979 16.3945 13.1516 16.6907C13.1054 16.9869 13.1241 17.2895 13.2064 17.5778L13.2731 17.8106C13.6734 19.2138 13.8759 20.6659 13.875 22.125C13.875 22.3239 13.796 22.5147 13.6553 22.6553C13.5147 22.796 13.3239 22.875 13.125 22.875H9.375C9.1761 22.875 8.98534 22.796 8.84468 22.6553C8.70401 22.5147 8.625 22.3239 8.625 22.125C8.62485 20.6664 8.82806 19.215 9.22875 17.8125L9.2955 17.5796C9.37781 17.2913 9.39649 16.9886 9.35025 16.6924C9.30401 16.3962 9.19399 16.1135 9.02775 15.864L8.85187 15.6015C8.75036 15.4494 8.68084 15.2783 8.64746 15.0985C8.61409 14.9187 8.61757 14.7341 8.65774 14.5557C8.6979 14.3773 8.77384 14.2089 8.88105 14.0608C8.98823 13.9126 9.12439 13.7878 9.28125 13.6939L10.2289 13.125H12.2711L13.2188 13.6939C13.3756 13.7877 13.5117 13.9123 13.6189 14.0602C13.7262 14.2082 13.8023 14.3764 13.8426 14.5546C13.8829 14.7328 13.8866 14.9174 13.8535 15.0971C13.8204 15.2768 13.7512 15.4479 13.65 15.6ZM12 11.625V12.375H10.5V11.625H12ZM11.625 10.875H10.875V10.125H11.625V10.875ZM13.3414 12.8925L12.75 12.5377V11.25C12.75 11.1506 12.7105 11.0552 12.6402 10.9848C12.5698 10.9145 12.4744 10.875 12.375 10.875V10.5H13.4779L13.3414 12.8925ZM14.25 9.75H12.375C12.375 9.65055 12.3355 9.55515 12.2652 9.48484C12.1948 9.41453 12.0994 9.375 12 9.375H10.5C10.4006 9.375 10.3052 9.41453 10.2348 9.48484C10.1645 9.55515 10.125 9.65055 10.125 9.75H8.625V8.25H14.25V9.75ZM5.25 1.125H10.5C10.5994 1.125 10.6948 1.16451 10.7652 1.23483C10.8355 1.30516 10.875 1.40054 10.875 1.5C10.875 1.59946 10.8355 1.69484 10.7652 1.76517C10.6948 1.83549 10.5994 1.875 10.5 1.875H5.25C5.15055 1.875 5.05515 1.83549 4.98484 1.76517C4.91453 1.69484 4.875 1.59946 4.875 1.5C4.875 1.40054 4.91453 1.30516 4.98484 1.23483C5.05515 1.16451 5.15055 1.125 5.25 1.125ZM2.25 5.625C2.25238 4.914 2.45574 4.21811 2.83659 3.61771C3.21745 3.0173 3.76031 2.53679 4.4025 2.23163C4.50701 2.35447 4.63688 2.45324 4.78316 2.52114C4.92945 2.58904 5.08871 2.62447 5.25 2.625H10.5C10.6613 2.62445 10.8205 2.589 10.9668 2.5211C11.1131 2.4532 11.243 2.35445 11.3475 2.23163C11.9897 2.53686 12.5325 3.01738 12.9133 3.61778C13.2941 4.21819 13.4975 4.914 13.5 5.625V7.5H8.625V7.125C8.625 7.02555 8.58547 6.93015 8.51516 6.85984C8.44485 6.78953 8.34945 6.75 8.25 6.75H4.5C4.40055 6.75 4.30515 6.78953 4.23484 6.85984C4.16453 6.93015 4.125 7.02555 4.125 7.125V7.5H2.25V5.625ZM7.875 7.5V11.625C7.875 11.7244 7.83547 11.8198 7.76516 11.8902C7.69485 11.9605 7.59945 12 7.5 12H5.25C5.15055 12 5.05515 11.9605 4.98484 11.8902C4.91453 11.8198 4.875 11.7244 4.875 11.625V7.5H7.875ZM1.5 8.25H4.125V9.75H1.5V8.25ZM4.125 10.5V11.625C4.125 11.9233 4.24354 12.2095 4.45451 12.4205C4.66549 12.6315 4.95165 12.75 5.25 12.75H7.5C7.79835 12.75 8.08451 12.6315 8.29549 12.4205C8.50646 12.2095 8.625 11.9233 8.625 11.625V10.5H10.125V10.875C10.0256 10.875 9.93015 10.9145 9.85984 10.9848C9.78953 11.0552 9.75 11.1506 9.75 11.25V12.5377L8.895 13.05C8.6511 13.1962 8.43941 13.3904 8.2728 13.6208C8.10619 13.8513 7.98814 14.1131 7.92574 14.3906C7.86337 14.668 7.85797 14.9552 7.90991 15.2348C7.96185 15.5143 8.07004 15.7805 8.22787 16.017L8.40338 16.2795C8.50943 16.4386 8.57963 16.6189 8.60914 16.8078C8.63869 16.9968 8.6268 17.1899 8.57437 17.3738L8.50763 17.6066C8.08781 19.076 7.87489 20.5968 7.875 22.125C7.87654 22.3891 7.9485 22.648 8.0835 22.875H6.9165C7.05146 22.648 7.12346 22.3891 7.125 22.125V19.5C7.12556 19.0928 7.03627 18.6905 6.86355 18.3217C6.69079 17.953 6.43882 17.6268 6.12562 17.3666L4.875 16.3241V15C4.875 14.9006 4.83547 14.8052 4.76516 14.7348C4.69485 14.6645 4.59945 14.625 4.5 14.625V13.5C4.5 13.4006 4.46047 13.3052 4.39016 13.2348C4.31985 13.1645 4.22445 13.125 4.125 13.125H2.42213L2.27213 10.5H4.125ZM2.25 13.875H3.75V14.625H2.25V13.875ZM1.125 22.125H6.375C6.375 22.3239 6.29599 22.5147 6.15532 22.6553C6.01466 22.796 5.8239 22.875 5.625 22.875H1.875C1.67609 22.875 1.48532 22.796 1.34467 22.6553C1.20402 22.5147 1.125 22.3239 1.125 22.125Z" fill="#99AF61"/>
<path d="M10.9414 17.0368C10.7423 17.3248 9.75 18.797 9.75 19.4998C9.75 19.8976 9.90803 20.2792 10.1894 20.5604C10.4706 20.8418 10.8522 20.9998 11.25 20.9998C11.6478 20.9998 12.0294 20.8418 12.3106 20.5604C12.592 20.2792 12.75 19.8976 12.75 19.4998C12.75 18.797 11.7577 17.3248 11.5586 17.0368C11.5223 16.9895 11.4755 16.9512 11.422 16.9248C11.3685 16.8985 11.3097 16.8848 11.25 16.8848C11.1903 16.8848 11.1315 16.8985 11.078 16.9248C11.0245 16.9512 10.9777 16.9895 10.9414 17.0368ZM11.25 20.2498C11.0511 20.2498 10.8603 20.1708 10.7197 20.0301C10.579 19.8895 10.5 19.6987 10.5 19.4998C10.5 19.2515 10.8499 18.5717 11.25 17.9327C11.6501 18.5702 12 19.2515 12 19.4998C12 19.6987 11.921 19.8895 11.7803 20.0301C11.6397 20.1708 11.4489 20.2498 11.25 20.2498Z" fill="#99AF61"/>
</g>
<defs>
<clipPath id="clip0_221124_1850">
<rect width="24" height="24" fill="white"/>
</clipPath>
</defs>
</svg>
