<svg width="24" height="24" viewBox="0 0 24 24" fill="none" xmlns="http://www.w3.org/2000/svg">
<g clip-path="url(#clip0_221087_2562)">
<path d="M21.5 14.5V19.5H2.5V6.5" stroke="#99AF61" stroke-linecap="round" stroke-linejoin="round"/>
<path d="M21.5 6.5V8.5" stroke="#99AF61" stroke-linecap="round" stroke-linejoin="round"/>
<path d="M12 7C12.8284 7 13.5 6.32843 13.5 5.5C13.5 4.67157 12.8284 4 12 4C11.1716 4 10.5 4.67157 10.5 5.5C10.5 6.32843 11.1716 7 12 7Z" stroke="#99AF61" stroke-linecap="round" stroke-linejoin="round"/>
<path d="M4.5 4.5C5.05228 4.5 5.5 4.05228 5.5 3.5C5.5 2.94772 5.05228 2.5 4.5 2.5C3.94772 2.5 3.5 2.94772 3.5 3.5C3.5 4.05228 3.94772 4.5 4.5 4.5Z" stroke="#99AF61" stroke-linecap="round" stroke-linejoin="round"/>
<path d="M22.5 0.5H1.5C1.23478 0.5 0.98043 0.605357 0.792893 0.792893C0.605357 0.98043 0.5 1.23478 0.5 1.5V5.5C0.5 5.76522 0.605357 6.01957 0.792893 6.20711C0.98043 6.39464 1.23478 6.5 1.5 6.5H6C8.5 6.5 7.5 9.5 10 9.5H14C16.5 9.5 15.5 6.5 18 6.5H22.5C22.7652 6.5 23.0196 6.39464 23.2071 6.20711C23.3946 6.01957 23.5 5.76522 23.5 5.5V1.5C23.5 1.23478 23.3946 0.98043 23.2071 0.792893C23.0196 0.605357 22.7652 0.5 22.5 0.5Z" stroke="#99AF61" stroke-linecap="round" stroke-linejoin="round"/>
<path d="M17.75 2.5C17.6017 2.5 17.4567 2.54399 17.3333 2.6264C17.21 2.70881 17.1139 2.82594 17.0571 2.96299C17.0003 3.10003 16.9855 3.25083 17.0144 3.39632C17.0434 3.5418 17.1148 3.67544 17.2197 3.78033C17.3246 3.88522 17.4582 3.95665 17.6037 3.98559C17.7492 4.01453 17.9 3.99968 18.037 3.94291C18.1741 3.88614 18.2912 3.79001 18.3736 3.66668C18.456 3.54334 18.5 3.39834 18.5 3.25C18.5 3.05109 18.421 2.86032 18.2803 2.71967C18.1397 2.57902 17.9489 2.5 17.75 2.5Z" fill="#99AF61"/>
<path d="M20.25 2.5C20.1017 2.5 19.9567 2.54399 19.8333 2.6264C19.71 2.70881 19.6139 2.82594 19.5571 2.96299C19.5003 3.10003 19.4855 3.25083 19.5144 3.39632C19.5434 3.5418 19.6148 3.67544 19.7197 3.78033C19.8246 3.88522 19.9582 3.95665 20.1037 3.98559C20.2492 4.01453 20.4 3.99968 20.537 3.94291C20.6741 3.88614 20.7912 3.79001 20.8736 3.66668C20.956 3.54334 21 3.39834 21 3.25C21 3.05109 20.921 2.86032 20.7803 2.71967C20.6397 2.57902 20.4489 2.5 20.25 2.5Z" fill="#99AF61"/>
<path d="M22.5 19.5H1.5C0.947715 19.5 0.5 19.9477 0.5 20.5V22.5C0.5 23.0523 0.947715 23.5 1.5 23.5H22.5C23.0523 23.5 23.5 23.0523 23.5 22.5V20.5C23.5 19.9477 23.0523 19.5 22.5 19.5Z" stroke="#99AF61" stroke-linecap="round" stroke-linejoin="round"/>
<path d="M15.5 16C15.5 16.9283 15.1313 17.8185 14.4749 18.4749C13.8185 19.1313 12.9283 19.5 12 19.5C11.0717 19.5 10.1815 19.1313 9.52513 18.4749C8.86875 17.8185 8.5 16.9283 8.5 16V15.5H15.5V16Z" stroke="#99AF61" stroke-linecap="round" stroke-linejoin="round"/>
<path d="M14 9.5H10V12C10 12.1326 10.0527 12.2598 10.1464 12.3536C10.2402 12.4473 10.3674 12.5 10.5 12.5H13.5C13.6326 12.5 13.7598 12.4473 13.8536 12.3536C13.9473 12.2598 14 12.1326 14 12V9.5Z" stroke="#99AF61" stroke-linecap="round" stroke-linejoin="round"/>
<path d="M12 12.5V13.5" stroke="#99AF61" stroke-linecap="round" stroke-linejoin="round"/>
<path d="M14 11.5H18.5" stroke="#99AF61" stroke-linecap="round" stroke-linejoin="round"/>
<path d="M23.5 11.5C23.5 11.7652 23.3946 12.0196 23.2071 12.2071C23.0196 12.3946 22.7652 12.5 22.5 12.5H19C18.8674 12.5 18.7402 12.4473 18.6464 12.3536C18.5527 12.2598 18.5 12.1326 18.5 12V11C18.5 10.8674 18.5527 10.7402 18.6464 10.6464C18.7402 10.5527 18.8674 10.5 19 10.5H22.5C22.7652 10.5 23.0196 10.6054 23.2071 10.7929C23.3946 10.9804 23.5 11.2348 23.5 11.5Z" stroke="#99AF61" stroke-linecap="round" stroke-linejoin="round"/>
<path d="M15.5 15.5H16.75C17.0815 15.5 17.3995 15.6317 17.6339 15.8661C17.8683 16.1005 18 16.4185 18 16.75C18 17.0815 17.8683 17.3995 17.6339 17.6339C17.3995 17.8683 17.0815 18 16.75 18" stroke="#99AF61" stroke-linecap="round" stroke-linejoin="round"/>
</g>
<defs>
<clipPath id="clip0_221087_2562">
<rect width="24" height="24" fill="white"/>
</clipPath>
</defs>
</svg>
