<svg width="24" height="24" viewBox="0 0 24 24" fill="none" xmlns="http://www.w3.org/2000/svg">
<path d="M8.98507 6.46324V2.28368C8.98507 2.08669 8.82562 1.92725 8.62863 1.92725H1.78222C1.58523 1.92725 1.42578 2.08669 1.42578 2.28368C1.42578 2.48066 1.58523 2.64011 1.78222 2.64011H4.28653V6.46324C2.77144 6.63599 1.58665 8.01967 1.58665 9.69635V18.5832C1.58665 20.3761 2.94158 21.8349 4.60661 21.8349H8.6638C10.3295 21.8349 11.6847 20.3761 11.6847 18.5832V9.69635C11.6849 8.01991 10.5004 6.63647 8.98507 6.46324ZM8.2722 2.64011V6.44423H4.9994V2.64011H8.2722ZM2.29952 10.8595H7.98515V17.6225H2.29952V10.8595ZM10.9721 18.5832C10.9721 19.9831 9.93675 21.122 8.66404 21.122H4.60661C3.33438 21.122 2.29952 19.9831 2.29952 18.5832V18.3354H8.34158C8.53857 18.3354 8.69802 18.1757 8.69802 17.979V10.5031C8.69802 10.3061 8.53857 10.1466 8.34158 10.1466H2.29952V9.69635C2.29952 8.29627 3.33438 7.15734 4.60661 7.15734H4.64059C4.64131 7.15734 4.64202 7.15758 4.64297 7.15758C4.64392 7.15758 4.6444 7.15734 4.64535 7.15734H8.62649C8.62721 7.15734 8.62792 7.15758 8.62887 7.15758C8.62982 7.15758 8.6303 7.15734 8.63125 7.15734H8.66428C9.93699 7.15734 10.9723 8.29627 10.9723 9.69635L10.9721 18.5832Z" fill="#99AF61" stroke="#99AF61" stroke-width="0.75"/>
<path d="M22.7215 2.00015C22.654 1.92411 22.557 1.88086 22.4553 1.88086H14.2314C14.1297 1.88086 14.0328 1.92434 13.9653 2.00015C13.8976 2.07619 13.8657 2.17741 13.8774 2.2784L15.6092 17.1772C15.6301 17.3571 15.7824 17.4925 15.9632 17.4925H15.9753V20.3777C15.9753 21.207 16.533 21.8816 17.2183 21.8816H19.3741C20.0591 21.8816 20.6164 21.207 20.6164 20.3777V17.4925H20.7245C20.9056 17.4925 21.0576 17.3571 21.0785 17.1772L21.5685 12.9601C21.5776 12.938 21.5892 12.9175 21.5937 12.8931C21.6023 12.8465 21.6011 12.8004 21.592 12.7567L22.8094 2.2784C22.821 2.17741 22.7892 2.07619 22.7215 2.00015ZM19.9035 20.3777C19.9035 20.8066 19.6609 21.1688 19.3741 21.1688H17.2183C16.9308 21.1688 16.6882 20.8066 16.6882 20.3777V17.4925H19.9035V20.3777ZM20.407 16.7796H20.3037C20.2892 16.7777 20.2749 16.7751 20.2599 16.7751C20.245 16.7751 20.2307 16.7777 20.2162 16.7796H16.2807L14.6318 2.59349H22.0552L21.7377 5.32521C19.629 5.41337 17.9395 7.15135 17.9395 9.28093C17.9395 11.0729 19.1376 12.626 20.8345 13.0986L20.407 16.7796ZM20.9184 12.3772C19.5848 11.9547 18.6524 10.7121 18.6524 9.28117C18.6524 7.57266 19.9781 6.17068 21.6543 6.0426L20.9184 12.3772Z" fill="#99AF61" stroke="#99AF61" stroke-width="0.75"/>
</svg>
