<svg width="24" height="24" viewBox="0 0 24 24" fill="none" xmlns="http://www.w3.org/2000/svg">
<g clip-path="url(#clip0_221092_3214)">
<path d="M19.5 11.5H14.5C14.3674 11.5 14.2402 11.5527 14.1464 11.6464C14.0527 11.7402 14 11.8674 14 12V15C14 15.1326 14.0527 15.2598 14.1464 15.3536C14.2402 15.4473 14.3674 15.5 14.5 15.5H19.5C19.6326 15.5 19.7598 15.4473 19.8536 15.3536C19.9473 15.2598 20 15.1326 20 15V12C20 11.8674 19.9473 11.7402 19.8536 11.6464C19.7598 11.5527 19.6326 11.5 19.5 11.5ZM19 14.5H15V12.5H19V14.5Z" fill="#99AF61"/>
<path d="M21.6392 6.8945L18.9997 3.815V2.5C18.9997 2.23478 18.8944 1.98043 18.7068 1.79289C18.5193 1.60536 18.265 1.5 17.9997 1.5H9.99974C9.73452 1.5 9.48017 1.60536 9.29263 1.79289C9.10509 1.98043 8.99974 2.23478 8.99974 2.5V3.815L6.36074 6.8935C6.12733 7.16526 5.99923 7.51177 5.99974 7.87V11H3.49974C3.2908 11 3.08418 11.0437 2.89311 11.1283C2.70204 11.2128 2.53074 11.3363 2.39018 11.4909C2.24962 11.6455 2.14291 11.8277 2.07688 12.0259C2.01085 12.2242 1.98696 12.434 2.00674 12.642L2.81624 21.142C2.85024 21.514 3.0224 21.8598 3.29877 22.1112C3.57513 22.3626 3.93565 22.5013 4.30924 22.5H20.4997C20.8976 22.5 21.2791 22.342 21.5604 22.0607C21.8417 21.7794 21.9997 21.3978 21.9997 21V7.87C22.0004 7.51214 21.8724 7.16595 21.6392 6.8945ZM20.4127 7H12.7297L10.5867 4.5H18.2697L20.4127 7ZM9.49974 4.7685L11.4127 7H7.58674L9.49974 4.7685ZM17.9997 2.5V3.5H9.99974V2.5H17.9997ZM3.12974 12.1635C3.1764 12.1117 3.23349 12.0704 3.29725 12.0422C3.36102 12.014 3.43002 11.9996 3.49974 12H8.99974C9.06983 11.9996 9.1392 12.014 9.20337 12.0422C9.26754 12.0704 9.32507 12.1118 9.37221 12.1637C9.41936 12.2155 9.45508 12.2767 9.47705 12.3433C9.49902 12.4098 9.50675 12.4803 9.49974 12.55L9.34974 14.1105C8.38129 14.3379 7.3709 14.315 6.41374 14.044C5.34732 13.7302 4.22053 13.6807 3.13074 13.9L3.00224 12.55C2.99485 12.4802 3.0024 12.4097 3.02438 12.343C3.04636 12.2764 3.08228 12.2152 3.12974 12.1635ZM7.49974 21.5H4.30924C4.18446 21.5006 4.06399 21.4545 3.97147 21.3707C3.87896 21.287 3.82109 21.1717 3.80924 21.0475L3.22624 14.9C4.17246 14.6936 5.15499 14.7238 6.08674 14.988C6.70568 15.1812 7.35143 15.2745 7.99974 15.2645C8.41896 15.2646 8.83733 15.2267 9.24974 15.1515L8.68774 21.05C8.67588 21.1742 8.61802 21.2895 8.5255 21.3732C8.43299 21.457 8.31251 21.5031 8.18774 21.5025L7.49974 21.5ZM9.59974 21.5C9.64247 21.3846 9.67069 21.2644 9.68374 21.142L10.4932 12.642C10.513 12.434 10.4891 12.2241 10.4231 12.0258C10.357 11.8276 10.2502 11.6453 10.1096 11.4907C9.96901 11.3361 9.79765 11.2126 9.60652 11.1281C9.41539 11.0436 9.20871 11 8.99974 11H6.99974V8H11.9997V21.5H9.59974ZM20.4997 21.5H12.9997V8H20.9997V21C20.9997 21.1326 20.9471 21.2598 20.8533 21.3536C20.7595 21.4473 20.6323 21.5 20.4997 21.5Z" fill="#99AF61"/>
<line x1="21.7619" y1="3.64765" x2="4.76194" y2="23.6476" stroke="#99AF61" stroke-width="2"/>
</g>
<defs>
<clipPath id="clip0_221092_3214">
<rect width="24" height="24" fill="white"/>
</clipPath>
</defs>
</svg>
