<svg width="24" height="24" viewBox="0 0 24 24" fill="none" xmlns="http://www.w3.org/2000/svg">
<path d="M20.908 10.0635C20.632 9.299 19.7395 8.237 18.576 7.696C18.7455 6.3565 17.773 4.9145 15.7775 3.584C15.024 3.0815 14.6385 2.6405 14.5985 2.236C14.561 1.8575 14.8155 1.392 15.354 0.8535C15.497 0.7105 15.54 0.4955 15.4625 0.3085C15.385 0.1215 15.202 0 15 0C11.2805 0 7.319 2.0515 7.028 5.1405C5.1255 5.871 3.2075 7.506 3.0195 10.086C2.429 10.2875 2 10.842 2 11.5C2 12.1665 2.4395 12.726 3.0415 12.921L3.814 20.262C3.937 21.436 4.8545 22.3345 5.9995 22.472V23.5C5.9995 23.7765 6.223 24 6.4995 24H17.4995C17.776 24 17.9995 23.7765 17.9995 23.5V22.472C19.1445 22.3345 20.062 21.4355 20.185 20.262L20.9575 12.921C21.5605 12.726 22 12.1665 22 11.5C22 10.815 21.536 10.2425 20.908 10.0635ZM7.0795 6.2045C7.2815 7.1765 7.889 8.0035 8.7765 8.447C9.023 8.5695 9.3235 8.4705 9.4475 8.2235C9.571 7.9765 9.471 7.676 9.224 7.5525C8.469 7.1755 8 6.3885 8 5.5C8 3.1355 10.9335 1.409 13.917 1.0635C13.665 1.498 13.562 1.919 13.603 2.334C13.698 3.296 14.5725 3.983 15.2225 4.416C15.973 4.916 17.561 6.1215 17.5935 7.36C16.726 7.1205 15.8875 7 15 7C14.7235 7 14.5 7.2235 14.5 7.5C14.5 7.7765 14.7235 8 15 8C15.9815 8 16.858 8.1465 17.842 8.474C18.7485 8.776 19.4215 9.4865 19.7585 10H4.0305C4.271 7.7885 6.0685 6.665 7.0795 6.2045ZM17 23H7V22.5H17V23ZM19.1915 20.157C19.111 20.923 18.47 21.5 17.7 21.5H6.3005C5.5305 21.5 4.8895 20.923 4.809 20.157L4.0555 13H19.945L19.1915 20.157ZM20.5 12H3.5C3.224 12 3 11.776 3 11.5C3 11.224 3.224 11 3.5 11H20.5C20.776 11 21 11.224 21 11.5C21 11.776 20.776 12 20.5 12Z" fill="#99AF61"/>
</svg>
