<svg width="24" height="24" viewBox="0 0 24 24" fill="none" xmlns="http://www.w3.org/2000/svg">
<path d="M23.25 9.37501C23.2492 8.74056 23.0188 8.12781 22.6015 7.64987C22.1842 7.17194 21.6082 6.86106 20.9796 6.77462C21.1945 6.49834 21.3278 6.16745 21.3644 5.81936C21.401 5.47126 21.3394 5.11984 21.1866 4.80494C21.0338 4.49004 20.7959 4.2242 20.4998 4.03752C20.2037 3.85083 19.8613 3.75076 19.5113 3.74862C19.1613 3.74649 18.8176 3.84238 18.5193 4.02543C18.221 4.20849 17.9798 4.47141 17.8232 4.78445C17.6666 5.09744 17.6007 5.44806 17.633 5.79658C17.6654 6.14509 17.7946 6.47762 18.0061 6.75648C17.3718 6.79712 16.7742 7.06825 16.3258 7.51881L15.1098 8.73484L15.1105 8.73545C15.1025 8.74347 15.0943 8.75115 15.0869 8.75997L13.7636 10.348C13.8141 10.0815 13.8065 9.80715 13.7412 9.54386L13.5132 8.63148L15.7356 0.853054L15.0144 0.646973L12.7644 8.52198C12.7463 8.58522 12.7453 8.65215 12.7612 8.71595L13.0136 9.72573C13.0728 9.96433 13.0527 10.2156 12.9562 10.4417L12.6212 11.2236C12.563 11.3594 12.4786 11.4824 12.3729 11.5855C12.2672 11.6887 12.1422 11.7701 12.005 11.8249C11.8678 11.8798 11.7212 11.9071 11.5735 11.9053C11.4257 11.9035 11.2798 11.8727 11.144 11.8144L10.9543 11.7332C10.7271 11.6354 10.5383 11.4657 10.4172 11.2501C10.296 11.0344 10.2491 10.7849 10.2838 10.54L10.4014 9.71701C10.4238 9.56036 10.479 9.41022 10.5634 9.27634C10.6478 9.14247 10.7594 9.02786 10.891 8.94001L11.458 8.56201C11.5015 8.533 11.5385 8.49522 11.5665 8.45106C11.5946 8.4069 11.6131 8.35736 11.6209 8.30561L12.7459 0.805631L12.0041 0.694396L10.9038 8.03017L10.475 8.31597C10.2556 8.46236 10.0696 8.65337 9.92897 8.8765C9.78834 9.09962 9.69633 9.34989 9.65892 9.61094L9.6383 9.75536C9.59363 9.75217 9.54881 9.75001 9.50367 9.75001H8.73595L8.71608 9.61089C8.67862 9.34984 8.58661 9.09958 8.44603 8.87645C8.30541 8.65337 8.11936 8.46236 7.89998 8.31597L7.47122 8.03017L6.37088 0.694396L5.62912 0.805631L6.75412 8.30561C6.76191 8.35736 6.78042 8.4069 6.80845 8.45106C6.83648 8.49522 6.87347 8.533 6.91697 8.56201L7.48397 8.94001C7.61559 9.02786 7.7272 9.14242 7.81158 9.27629C7.89595 9.41017 7.95117 9.56031 7.97363 9.71697L8.09119 10.54C8.12587 10.785 8.079 11.0345 7.95783 11.2501C7.83666 11.4657 7.64789 11.6355 7.42064 11.7332L7.23098 11.8144C7.09519 11.8727 6.94927 11.9035 6.80156 11.9053C6.65381 11.9072 6.50719 11.8798 6.37003 11.8249C6.23283 11.7701 6.10781 11.6887 6.00206 11.5855C5.89636 11.4824 5.81198 11.3594 5.75381 11.2236L5.41875 10.4417C5.32233 10.2156 5.30222 9.96433 5.36137 9.72573L5.6138 8.71595C5.62973 8.65215 5.62866 8.58522 5.61056 8.52198L3.36058 0.646973L2.63942 0.853054L4.86183 8.63148L4.63376 9.54386C4.61689 9.61178 4.60388 9.68059 4.59481 9.75001H0.75V10.5H4.64666C4.66884 10.5808 4.6965 10.6601 4.72941 10.7372L5.06442 11.519C5.16108 11.7456 5.30152 11.9509 5.47767 12.1231C5.65383 12.2953 5.86223 12.4311 6.09098 12.5226C6.31973 12.6141 6.56428 12.6595 6.81061 12.6563C7.05694 12.6531 7.30022 12.6012 7.52644 12.5038L7.71609 12.4225C7.77075 12.3991 7.82363 12.373 7.875 12.3451V18H0.75V18.75H8.71111C8.9497 18.7502 9.18605 18.7047 9.40748 18.6159L10.7847 18.065L12.0455 19.3258L12.0471 19.3273C11.6253 19.5292 11.2845 19.8685 11.0809 20.2894C10.8772 20.7104 10.8226 21.1881 10.9261 21.6442C11.0297 22.1002 11.2851 22.5076 11.6506 22.7994C12.0161 23.0912 12.4698 23.2501 12.9375 23.25H22.875C22.9745 23.25 23.0699 23.2105 23.1402 23.1402C23.2105 23.0699 23.25 22.9745 23.25 22.875V17.25C23.25 17.1505 23.2105 17.0552 23.1402 16.9848C23.0699 16.9145 22.9745 16.875 22.875 16.875H22.0491C22.2467 16.7163 22.4263 16.5363 22.5846 16.3383C22.7605 16.1183 22.8834 15.8607 22.9437 15.5854C23.004 15.3102 23 15.0248 22.932 14.7514C23.1412 14.3675 23.2505 13.9372 23.25 13.5V9.37501ZM19.5 4.50001C19.7225 4.50001 19.94 4.56599 20.125 4.68962C20.31 4.81323 20.4542 4.98892 20.5394 5.19451C20.6245 5.40006 20.6468 5.62628 20.6034 5.84448C20.56 6.06273 20.4528 6.26317 20.2955 6.42053C20.1382 6.57784 19.9377 6.685 19.7195 6.7284C19.5013 6.77181 19.275 6.74954 19.0695 6.66437C18.8639 6.57925 18.6882 6.43501 18.5646 6.25004C18.441 6.06503 18.375 5.84753 18.375 5.62501C18.3753 5.32675 18.494 5.04081 18.7049 4.82987C18.9158 4.61899 19.2017 4.50036 19.5 4.50001ZM16.8562 8.0492C17.0298 7.87454 17.2365 7.73608 17.464 7.64181C17.6916 7.5475 17.9356 7.49931 18.182 7.50001H20.625C21.1221 7.50058 21.5987 7.69829 21.9502 8.04981C22.3017 8.40133 22.4994 8.8779 22.5 9.37501V13.5C22.4994 13.9971 22.3017 14.4737 21.9502 14.8252C21.5987 15.1767 21.1221 15.3745 20.625 15.375H20.624C20.8684 15.0509 21.0004 14.656 21 14.25V11.25C20.9994 10.7529 20.8017 10.2763 20.4502 9.92481C20.0987 9.57329 19.6221 9.37558 19.125 9.37501H18.4212L16.1085 8.79686L16.8562 8.0492ZM9.12886 17.9195C8.99606 17.9728 8.85422 18.0002 8.71111 18H8.625V15.9054L10.2077 17.488L9.12886 17.9195ZM8.625 14.8447V11.592C8.80627 11.2584 8.88183 10.8775 8.84166 10.5H9.50367C9.51356 10.5 9.52336 10.5005 9.53325 10.5008C9.4913 10.8993 9.57792 11.3008 9.78047 11.6465C9.98297 11.9923 10.2908 12.2642 10.6589 12.4225L10.8486 12.5038C11.287 12.6918 11.7806 12.7055 12.2288 12.5423C12.6769 12.379 13.046 12.0509 13.2607 11.625H13.5C13.555 11.625 13.6093 11.6129 13.659 11.5896C13.7088 11.5663 13.7529 11.5323 13.7881 11.4901L15.5124 9.4209L18.2841 10.1138C18.3138 10.1213 18.3443 10.125 18.375 10.125H19.125C19.4233 10.1253 19.7092 10.244 19.9201 10.4549C20.131 10.6658 20.2497 10.9517 20.25 11.25V14.25C20.2497 14.5483 20.131 14.8342 19.9201 15.0452C19.7092 15.256 19.4233 15.3747 19.125 15.375H15.9963C15.8485 15.3754 15.7021 15.3465 15.5655 15.2899C15.429 15.2334 15.305 15.1503 15.2008 15.0455L13.7652 13.6098C13.6948 13.5395 13.5995 13.5 13.5 13.5H11.4053L11.1402 13.2348L10.6098 13.7652L13.6492 16.8045C13.8611 17.0155 14.1481 17.1338 14.4471 17.1335C14.5752 17.1335 14.7024 17.1116 14.8231 17.0686L17.465 16.125H20.625C21.1671 16.1254 21.6959 15.9571 22.1378 15.6432C22.101 15.7241 22.0544 15.8002 21.999 15.8698C21.7486 16.1842 21.4305 16.4379 21.0683 16.612C20.7062 16.786 20.3093 16.876 19.9075 16.875H19.875C19.8207 16.875 19.7671 16.8868 19.7178 16.9095L15.142 19.0215C14.9941 19.0894 14.8333 19.1248 14.6706 19.125H13.3713C13.2235 19.1254 13.0771 19.0965 12.9405 19.0399C12.804 18.9834 12.68 18.9003 12.5758 18.7955L8.625 14.8447ZM15.4558 16.0462L14.5709 16.3622C14.504 16.3859 14.4318 16.3902 14.3625 16.3746C14.2933 16.3591 14.2299 16.3242 14.1795 16.2742L12.1553 14.25H13.3447L14.6705 15.5758C14.8891 15.7954 15.159 15.9571 15.4558 16.0462ZM22.5 22.5H12.9375C12.5894 22.5 12.2556 22.3617 12.0094 22.1156C11.7633 21.8695 11.625 21.5356 11.625 21.1875C11.625 20.8394 11.7633 20.5056 12.0094 20.2594C12.2556 20.0133 12.5894 19.875 12.9375 19.875H22.5V22.5ZM22.5 17.625V19.125H16.7074L19.9582 17.6246C20.0563 17.6232 20.1534 17.6164 20.25 17.6068V17.625H22.5Z" fill="#99AF61"/>
<path d="M19.125 10.875H18.375V12.375H19.125V10.875Z" fill="#99AF61"/>
<path d="M19.125 13.125H18.375V14.625H19.125V13.125Z" fill="#99AF61"/>
<path d="M16.2683 13.2137C16.4238 13.2922 16.5983 13.3254 16.7718 13.3098C16.9453 13.2941 17.111 13.2302 17.25 13.1252L17.85 12.6752L17.4 12.0752L16.8 12.5251C16.7722 12.5461 16.739 12.5588 16.7043 12.5619C16.6696 12.5651 16.6348 12.5585 16.6036 12.5429C16.5725 12.5274 16.5463 12.5034 16.528 12.4738C16.5097 12.4441 16.5 12.41 16.5 12.3752H15.75C15.7494 12.5494 15.7977 12.7203 15.8893 12.8686C15.9809 13.0168 16.1122 13.1364 16.2683 13.2137Z" fill="#99AF61"/>
<path d="M15.335 13.3323C15.2509 13.1636 15.2128 12.9756 15.2245 12.7874C15.2362 12.5992 15.2973 12.4174 15.4018 12.2604L15.6866 11.8331L15.0625 11.417L14.7777 11.8444C14.6001 12.1114 14.4961 12.4207 14.4762 12.7408C14.4563 13.0609 14.5211 13.3807 14.6642 13.6677L15.335 13.3323Z" fill="#99AF61"/>
<path d="M4.875 21H4.125V19.875H3.375V21H2.625C2.52555 21 2.43016 21.0395 2.35984 21.1098C2.28951 21.1801 2.25 21.2755 2.25 21.375V22.875C2.25 22.9745 2.28951 23.0699 2.35984 23.1402C2.43016 23.2105 2.52555 23.25 2.625 23.25H4.875C4.97447 23.25 5.06986 23.2105 5.14017 23.1402C5.21048 23.0699 5.25 22.9745 5.25 22.875V21.375C5.25 21.2755 5.21048 21.1801 5.14017 21.1098C5.06986 21.0395 4.97447 21 4.875 21ZM4.5 22.5H3V21.75H4.5V22.5Z" fill="#99AF61"/>
<path d="M9.75001 19.5H6.37501C6.27554 19.5 6.18019 19.5395 6.10983 19.6098C6.03952 19.6801 6.00001 19.7755 6.00001 19.875V20.0947C5.99907 20.441 6.10754 20.7787 6.30994 21.0597C6.10604 21.5437 6.00066 22.0634 6.00001 22.5885V22.875C6.00001 22.9745 6.03952 23.0699 6.10983 23.1402C6.18019 23.2105 6.27554 23.25 6.37501 23.25H9.75001C9.84947 23.25 9.94487 23.2105 10.0152 23.1402C10.0855 23.0699 10.125 22.9745 10.125 22.875V22.5885C10.1243 22.0634 10.019 21.5437 9.81507 21.0597C10.0175 20.7787 10.126 20.441 10.125 20.0947V19.875C10.125 19.7755 10.0855 19.6801 10.0152 19.6098C9.94487 19.5395 9.84947 19.5 9.75001 19.5ZM6.75127 22.5C6.76472 22.0369 6.87877 21.5823 7.0854 21.1677C7.1206 21.0973 7.13279 21.0176 7.12018 20.94C7.10757 20.8622 7.07082 20.7905 7.01518 20.7348C6.8829 20.6033 6.79482 20.4338 6.76318 20.25H9.36183C9.33019 20.4338 9.24212 20.6033 9.10983 20.7348C9.05419 20.7905 9.01744 20.8622 9.00483 20.94C8.99222 21.0176 9.00441 21.0973 9.03962 21.1677C9.24629 21.5823 9.36029 22.0369 9.37374 22.5H6.75127Z" fill="#99AF61"/>
<path d="M21.75 20.625H12.75V21.375H21.75V20.625Z" fill="#99AF61"/>
</svg>
