<svg width="24" height="24" viewBox="0 0 24 24" fill="none" xmlns="http://www.w3.org/2000/svg">
<g clip-path="url(#clip0_221124_1812)">
<path fill-rule="evenodd" clip-rule="evenodd" d="M18.2344 24H6.60938C6.51562 24 6.42188 23.9531 6.375 23.9062C4.3125 22.1719 3.14062 19.5938 3.14062 16.875C3.14062 14.3906 4.07812 12.0469 5.85938 10.3125C7.59375 8.57812 9.9375 7.59375 12.375 7.59375C14.9062 7.59375 17.2031 8.57812 18.9844 10.3125C20.7188 12.0469 21.6562 14.3906 21.6562 16.875C21.6562 19.5938 20.4844 22.1719 18.4219 23.9062C18.375 23.9531 18.2812 24 18.2344 24ZM6.70312 23.3438H18.0938C19.9688 21.7031 21 19.3594 21 16.875C21 12.1406 17.1562 8.25 12.375 8.25C7.64062 8.25 3.79688 12.1406 3.79688 16.875C3.79688 19.3594 4.82812 21.7031 6.70312 23.3438Z" fill="#99AF61"/>
<path fill-rule="evenodd" clip-rule="evenodd" d="M15.75 8.90625C15.6094 8.90625 15.4219 8.76562 15.4219 8.57812V7.21875C15.4219 6.70312 15.0469 6.28125 14.4844 6.28125H10.3125C9.75 6.28125 9.375 6.70312 9.375 7.21875V8.57812C9.375 8.76562 9.1875 8.90625 9.04688 8.90625C8.85938 8.90625 8.67188 8.76562 8.67188 8.57812V7.21875C8.67188 6.32812 9.42188 5.625 10.3125 5.625H14.4844C15.375 5.625 16.0781 6.32812 16.0781 7.21875V8.57812C16.0781 8.76562 15.9375 8.90625 15.75 8.90625Z" fill="#99AF61"/>
<path fill-rule="evenodd" clip-rule="evenodd" d="M13.7812 6.28125C13.6406 6.28125 13.4531 6.14062 13.4531 5.95312L13.5 2.29688H11.3906V5.95312C11.3906 6.14062 11.2031 6.28125 11.0625 6.28125C10.875 6.28125 10.7344 6.14062 10.7344 5.95312V1.96875C10.7344 1.78125 10.875 1.64062 11.0625 1.64062H13.7812C13.9688 1.64062 14.1094 1.78125 14.1094 1.96875V5.95312C14.1094 6.14062 13.9688 6.28125 13.7812 6.28125Z" fill="#99AF61"/>
<path fill-rule="evenodd" clip-rule="evenodd" d="M20.3438 7.96875C19.2656 7.96875 18.4219 7.125 18.4219 6.04688C18.4219 5.85938 18.6094 5.71875 18.7969 5.71875C18.9375 5.71875 19.125 5.85938 19.125 6.04688C19.125 6.75 19.6406 7.3125 20.3438 7.3125C21.0469 7.3125 21.6094 6.75 21.6094 6.04688C21.6094 5.95312 21.5625 5.85938 21.5156 5.71875C21.5156 5.67188 21.5156 5.625 21.5156 5.625C21.4688 5.53125 21.5156 5.39062 21.5625 5.34375C21.6094 5.25 21.7031 5.20312 21.8438 5.20312H21.8906C22.5938 5.20312 23.1094 4.64062 23.1094 3.98438C23.1094 3.28125 22.5938 2.71875 21.8906 2.71875H21.7969C21.7031 2.71875 21.6094 2.67188 21.5625 2.57812C21.4688 2.48438 21.4688 2.39062 21.5156 2.29688C21.5625 2.15625 21.5625 1.96875 21.5625 1.875C21.5625 1.21875 21 0.65625 20.2969 0.65625C19.6406 0.65625 19.0781 1.21875 19.0781 1.875C19.0781 2.0625 18.9375 2.20312 18.75 2.20312C18.5625 2.20312 18.4219 2.0625 18.4219 1.875C18.4219 0.84375 19.3125 0 20.2969 0C21.375 0 22.2188 0.84375 22.2188 1.875C22.2188 1.92188 22.2188 2.01562 22.2188 2.10938C23.1094 2.25 23.7656 3.04688 23.7656 3.98438C23.7656 4.875 23.1094 5.67188 22.2188 5.8125C22.2188 5.90625 22.2188 5.95312 22.2188 6.04688C22.2188 7.125 21.375 7.96875 20.3438 7.96875Z" fill="#99AF61"/>
<path fill-rule="evenodd" clip-rule="evenodd" d="M17.3438 3.51562C17.1562 3.51562 17.0156 3.51562 16.9219 3.51562C16.7344 3.51562 16.5938 3.375 16.5938 3.1875C16.6406 3 16.7812 2.85938 16.9688 2.85938C17.8125 2.90625 19.1719 2.8125 19.5469 2.4375C19.6406 2.29688 19.875 2.29688 19.9688 2.4375C20.1094 2.57812 20.1094 2.76562 19.9688 2.90625C19.4531 3.46875 18.0469 3.51562 17.3438 3.51562Z" fill="#99AF61"/>
<path fill-rule="evenodd" clip-rule="evenodd" d="M19.7808 5.57812C19.687 5.57812 19.5933 5.53125 19.5464 5.48438C19.1714 5.15625 17.812 5.0625 16.9683 5.0625C16.7808 5.0625 16.6402 4.92188 16.6402 4.73438C16.5933 4.54688 16.7808 4.40625 16.9214 4.40625C17.3433 4.40625 19.312 4.40625 19.9683 5.01562C20.1089 5.15625 20.1089 5.34375 20.0152 5.48438C19.9214 5.53125 19.8277 5.57812 19.7808 5.57812Z" fill="#99AF61"/>
<path fill-rule="evenodd" clip-rule="evenodd" d="M14.7656 5.01562H13.7812C13.6406 5.01562 13.4531 4.875 13.4531 4.6875C13.4531 4.5 13.6406 4.35938 13.7812 4.35938H14.3906V3.60938H13.7812C13.6406 3.60938 13.4531 3.46875 13.4531 3.28125C13.4531 3.09375 13.6406 2.95312 13.7812 2.95312H14.7656C14.9062 2.95312 15.0938 3.09375 15.0938 3.28125V4.6875C15.0469 4.875 14.9062 5.01562 14.7656 5.01562Z" fill="#99AF61"/>
<path fill-rule="evenodd" clip-rule="evenodd" d="M11.0625 4.3125H6.60938C6.42188 4.3125 6.28125 4.17188 6.28125 3.98438C6.28125 3.79688 6.42188 3.65625 6.60938 3.65625H11.0625C11.2031 3.65625 11.3906 3.79688 11.3906 3.98438C11.3906 4.17188 11.2031 4.3125 11.0625 4.3125Z" fill="#99AF61"/>
<path fill-rule="evenodd" clip-rule="evenodd" d="M3.60938 6.79688C1.73438 6.79688 0.234375 5.53125 0.234375 3.98438C0.234375 3.1875 0.5625 2.48438 1.21875 1.92188C1.875 1.40625 2.67188 1.125 3.60938 1.125C5.4375 1.125 6.9375 2.39062 6.9375 3.98438C6.9375 4.73438 6.5625 5.4375 5.90625 6C5.29688 6.51562 4.45312 6.79688 3.60938 6.79688ZM3.60938 1.78125C2.10938 1.78125 0.84375 2.76562 0.84375 3.98438C0.84375 5.15625 2.0625 6.14062 3.60938 6.14062C5.01562 6.14062 6.28125 5.15625 6.28125 3.98438C6.28125 2.76562 5.0625 1.78125 3.60938 1.78125Z" fill="#99AF61"/>
<path fill-rule="evenodd" clip-rule="evenodd" d="M16.9219 22.4531H7.92188C7.82812 22.4531 7.73438 22.4062 7.6875 22.3594C6.89062 21.7031 6.28125 20.9062 5.8125 19.9688C5.39062 18.9844 5.15625 17.9531 5.15625 16.8281C5.15625 14.9062 5.90625 13.0781 7.26562 11.6719C8.625 10.3125 10.4531 9.5625 12.375 9.5625C16.4062 9.5625 19.6875 12.8438 19.6875 16.8281C19.6875 18.9375 18.7969 20.9531 17.1562 22.3594C17.1094 22.4062 17.0156 22.4531 16.9219 22.4531ZM8.01562 21.7969H16.8281C18.2344 20.5312 19.0781 18.7031 19.0781 16.8281C19.0781 13.1719 16.0781 10.2188 12.4219 10.2188C8.76562 10.2188 5.8125 13.1719 5.8125 16.8281C5.8125 18.7969 6.5625 20.5312 8.01562 21.7969Z" fill="#99AF61"/>
<path fill-rule="evenodd" clip-rule="evenodd" d="M19.359 17.2968C19.3122 17.2968 19.2653 17.2968 19.2184 17.2499C18.0465 16.5468 15.609 15.4686 12.4684 16.3593C9.18717 17.2968 6.65592 16.5468 5.43717 16.0311C5.24967 15.9374 5.15592 15.7499 5.24967 15.5624C5.34342 15.4218 5.53092 15.328 5.67154 15.4218C6.84342 15.8905 9.18717 16.6405 12.2809 15.703C15.6559 14.7655 18.2809 15.9374 19.5465 16.6874C19.6872 16.7811 19.734 17.0155 19.6403 17.1561C19.5934 17.2499 19.4997 17.2968 19.359 17.2968Z" fill="#99AF61"/>
<path fill-rule="evenodd" clip-rule="evenodd" d="M11.6252 20.5315C11.4377 20.5315 11.2971 20.4377 11.2971 20.2502C11.2502 20.0627 10.5939 15.7034 12.1408 13.9221C13.2658 12.6565 12.4689 9.2346 12.0939 8.01585C12.0471 7.82835 12.1408 7.68773 12.2814 7.59398C12.4689 7.5471 12.6564 7.64085 12.7033 7.82835C12.7971 8.01585 14.2502 12.5627 12.6564 14.3909C11.2502 15.9377 11.9064 20.1096 11.9533 20.1565C11.9533 20.344 11.8596 20.4846 11.6721 20.5315C11.6252 20.5315 11.6252 20.5315 11.6252 20.5315Z" fill="#99AF61"/>
</g>
<defs>
<clipPath id="clip0_221124_1812">
<rect width="24" height="24" fill="white"/>
</clipPath>
</defs>
</svg>
