<svg width="26" height="24" viewBox="0 0 26 24" fill="none" xmlns="http://www.w3.org/2000/svg">
<path d="M6.85742 9.73718V11.1086C6.85742 11.2601 6.98025 11.3829 7.13171 11.3829C7.28317 11.3829 7.40599 11.2601 7.40599 11.1086V9.73718C7.40599 9.58572 7.28317 9.46289 7.13171 9.46289C6.98025 9.46289 6.85742 9.58572 6.85742 9.73718Z" fill="#99AF61"/>
<path d="M7.9541 10.0116V11.1087C7.9541 11.2602 8.07693 11.383 8.22839 11.383C8.37985 11.383 8.50267 11.2602 8.50267 11.1087V10.0116C8.50267 9.86013 8.37985 9.7373 8.22839 9.7373C8.07693 9.7373 7.9541 9.86013 7.9541 10.0116Z" fill="#99AF61"/>
<path d="M23.369 12.2057H23.3596C23.51 11.8618 23.5884 11.4897 23.5884 11.1086C23.5884 9.59617 22.358 8.36573 20.8455 8.36573C19.681 8.36573 18.668 9.08479 18.2744 10.1517C17.7962 9.95768 17.2444 9.96163 16.7581 10.184C16.2854 9.08381 15.2109 8.36573 13.9884 8.36573C12.4117 8.36573 11.1136 9.58136 10.9822 11.1247C10.3021 11.208 9.6915 11.6102 9.34623 12.2057H6.3084V10.0114C6.3084 9.85998 6.18558 9.73715 6.03412 9.73715C5.88266 9.73715 5.75983 9.85998 5.75983 10.0114V12.2057H2.4684V5.48573C2.4684 4.50269 3.26822 3.70287 4.25126 3.70287C5.2343 3.70287 6.03412 4.50269 6.03412 5.48573V6.46136C4.80159 6.59828 3.83983 7.64589 3.83983 8.9143C3.83983 9.06576 3.96266 9.18858 4.11412 9.18858H4.66269V10.2857C4.66269 10.4372 4.78551 10.56 4.93697 10.56C5.08843 10.56 5.21126 10.4372 5.21126 10.2857V9.18858C5.51413 9.18858 8.14864 9.18858 8.50378 9.18858C8.66413 9.18858 8.792 9.05106 8.77686 8.88808C8.76375 7.63141 7.80677 6.5973 6.58269 6.4613V5.48573C6.58269 4.20015 5.53678 3.1543 4.2512 3.1543C2.96568 3.1543 1.91983 4.20015 1.91983 5.48573V12.2057H1.42612C0.66991 12.2057 0.0546875 12.8209 0.0546875 13.5772C0.0546875 14.2614 0.558441 14.8302 1.21453 14.9322L2.98598 21.1325C3.23766 22.0134 4.05333 22.6285 4.96945 22.6285H6.3084V22.7794C6.3084 23.4525 6.85593 24 7.52897 24H8.92783C9.60087 24 10.1484 23.4525 10.1484 22.7794V22.6286H15.3598V22.7794C15.3598 23.4525 15.9074 24 16.5804 24H17.9793C18.6523 24 19.1998 23.4525 19.1998 22.7794V22.6286H19.8255C20.7416 22.6286 21.5572 22.0134 21.809 21.1326L23.5805 14.9322C24.2366 14.8303 24.7404 14.2614 24.7404 13.5772C24.7404 12.8209 24.1252 12.2057 23.369 12.2057ZM8.20887 8.64001H4.40793C4.54145 7.71079 5.34281 6.9943 6.3084 6.9943C7.274 6.9943 8.07535 7.71079 8.20887 8.64001ZM11.2455 11.6572C11.397 11.6572 11.5198 11.5343 11.5198 11.3829C11.5198 10.0217 12.6272 8.9143 13.9884 8.9143C15.0822 8.9143 16.0312 9.61674 16.3498 10.6622C16.4043 10.8408 16.6173 10.9135 16.7693 10.807C17.2288 10.4858 17.8311 10.4798 18.2938 10.777C18.453 10.8792 18.6661 10.7931 18.7091 10.6084C18.9417 9.61093 19.8202 8.9143 20.8455 8.9143C22.0554 8.9143 23.0398 9.89865 23.0398 11.1086C23.0398 11.4967 22.938 11.873 22.7453 12.2057H10.0201C10.3284 11.8633 10.7734 11.6572 11.2455 11.6572ZM22.5351 16.5943H2.25994L1.78976 14.9486H23.0054L22.5351 16.5943ZM9.59983 22.7794C9.59983 23.15 9.29839 23.4514 8.92783 23.4514H7.52897C7.15841 23.4514 6.85697 23.15 6.85697 22.7794V22.6286H9.59983V22.7794ZM18.6513 22.7794C18.6513 23.15 18.3498 23.4514 17.9793 23.4514H16.5804C16.2098 23.4514 15.9084 23.15 15.9084 22.7794V22.6286H18.6513V22.7794ZM21.2815 20.9818C21.0967 21.6284 20.498 22.08 19.8255 22.08C18.7795 22.08 5.68407 22.08 4.96945 22.08C4.29696 22.08 3.69819 21.6284 3.51343 20.9818L2.41662 17.1429H22.3784L21.2815 20.9818ZM23.369 14.4H1.42612C0.972393 14.4 0.603259 14.0309 0.603259 13.5772C0.603259 13.1234 0.972393 12.7543 1.42612 12.7543C2.11529 12.7543 22.8631 12.7543 23.369 12.7543C23.8227 12.7543 24.1918 13.1234 24.1918 13.5772C24.1918 14.0309 23.8227 14.4 23.369 14.4Z" fill="#99AF61"/>
<path d="M11.5199 4.79999C12.2761 4.79999 12.8913 4.18476 12.8913 3.42856C12.8913 2.67235 12.2761 2.05713 11.5199 2.05713C10.7637 2.05713 10.1484 2.67235 10.1484 3.42856C10.1484 4.18476 10.7637 4.79999 11.5199 4.79999ZM11.5199 2.6057C11.9736 2.6057 12.3427 2.97483 12.3427 3.42856C12.3427 3.88228 11.9736 4.25141 11.5199 4.25141C11.0661 4.25141 10.697 3.88228 10.697 3.42856C10.697 2.97483 11.0661 2.6057 11.5199 2.6057Z" fill="#99AF61"/>
<path d="M22.7654 7.26869C24.1266 7.26869 25.234 6.16128 25.234 4.80011C25.234 3.43894 24.1266 2.33154 22.7654 2.33154C21.4043 2.33154 20.2969 3.43894 20.2969 4.80011C20.2969 6.16128 21.4043 7.26869 22.7654 7.26869ZM22.7654 2.88011C23.8241 2.88011 24.6854 3.74143 24.6854 4.80011C24.6854 5.8588 23.8241 6.72011 22.7654 6.72011C21.7068 6.72011 20.8454 5.8588 20.8454 4.80011C20.8454 3.74143 21.7068 2.88011 22.7654 2.88011Z" fill="#99AF61"/>
<path d="M20.7083 0.822857C20.9355 0.822857 21.1197 0.638654 21.1197 0.411429C21.1197 0.184203 20.9355 0 20.7083 0C20.4811 0 20.2969 0.184203 20.2969 0.411429C20.2969 0.638654 20.4811 0.822857 20.7083 0.822857Z" fill="#99AF61"/>
<path d="M14.1253 2.60557C14.3525 2.60557 14.5367 2.42137 14.5367 2.19414C14.5367 1.96692 14.3525 1.78271 14.1253 1.78271C13.8981 1.78271 13.7139 1.96692 13.7139 2.19414C13.7139 2.42137 13.8981 2.60557 14.1253 2.60557Z" fill="#99AF61"/>
<path d="M24.2747 9.46299C24.5019 9.46299 24.6861 9.27879 24.6861 9.05157C24.6861 8.82434 24.5019 8.64014 24.2747 8.64014C24.0475 8.64014 23.8633 8.82434 23.8633 9.05157C23.8633 9.27879 24.0475 9.46299 24.2747 9.46299Z" fill="#99AF61"/>
<path d="M17.4173 6.4459C17.6445 6.4459 17.8287 6.2617 17.8287 6.03448C17.8287 5.80725 17.6445 5.62305 17.4173 5.62305C17.1901 5.62305 17.0059 5.80725 17.0059 6.03448C17.0059 6.2617 17.1901 6.4459 17.4173 6.4459Z" fill="#99AF61"/>
<path d="M11.1087 7.54307C11.3359 7.54307 11.5201 7.35887 11.5201 7.13164C11.5201 6.90442 11.3359 6.72021 11.1087 6.72021C10.8815 6.72021 10.6973 6.90442 10.6973 7.13164C10.6973 7.35887 10.8815 7.54307 11.1087 7.54307Z" fill="#99AF61"/>
<path d="M7.54326 0.960064C7.77049 0.960064 7.95469 0.775861 7.95469 0.548636C7.95469 0.32141 7.77049 0.137207 7.54326 0.137207C7.31604 0.137207 7.13184 0.32141 7.13184 0.548636C7.13184 0.775861 7.31604 0.960064 7.54326 0.960064Z" fill="#99AF61"/>
<path d="M0.411429 6.17149C0.638654 6.17149 0.822857 5.98729 0.822857 5.76006C0.822857 5.53284 0.638654 5.34863 0.411429 5.34863C0.184203 5.34863 0 5.53284 0 5.76006C0 5.98729 0.184203 6.17149 0.411429 6.17149Z" fill="#99AF61"/>
</svg>
