<svg width="24" height="24" viewBox="0 0 24 24" fill="none" xmlns="http://www.w3.org/2000/svg">
<g clip-path="url(#clip0_221081_2480)">
<path fill-rule="evenodd" clip-rule="evenodd" d="M22.7921 13.6182H14.773C14.1115 13.6182 13.585 13.0714 13.585 12.4099C13.585 11.745 14.1317 11.2017 14.773 11.2017H22.7921C23.4536 11.2017 24.0004 11.745 24.0004 12.4099C24.0004 13.0714 23.4536 13.6182 22.7921 13.6182ZM14.773 11.8834C14.4827 11.8834 14.2667 12.1163 14.2667 12.4099C14.2667 12.7036 14.4996 12.9364 14.773 12.9364H22.7921C23.0824 12.9364 23.3186 12.7036 23.3186 12.4099C23.3186 12.1163 23.0824 11.8834 22.7921 11.8834H14.773Z" fill="#99AF61"/>
<path fill-rule="evenodd" clip-rule="evenodd" d="M18.4412 22.3597C14.6746 22.3597 13.409 21.4417 11.9071 20.3886C10.9486 19.7069 9.87869 18.9441 7.90766 18.3197C7.20564 18.0869 6.07163 17.6751 5.13674 17.3241C4.96123 17.2667 4.86336 17.0541 4.94098 16.8786C5.00174 16.6997 5.21436 16.6052 5.38987 16.6828C6.30788 17.0338 7.43852 17.4422 8.12028 17.6582C10.2094 18.3197 11.3198 19.1196 12.3155 19.8419C13.76 20.8746 14.9109 21.6948 18.4412 21.6948C21.0737 21.6948 22.4406 19.4706 22.4406 17.2667V13.2875C22.4406 13.0918 22.5959 12.9365 22.7916 12.9365C22.9874 12.9365 23.1426 13.0918 23.1426 13.2875V17.2465C23.1224 19.7845 21.5226 22.3597 18.4412 22.3597ZM13.6014 17.1115C13.0377 17.1115 12.5112 16.936 12.356 16.8955L5.8185 15.4543C5.643 15.4138 5.52824 15.2383 5.56537 15.0426C5.60587 14.8671 5.78137 14.7523 5.97713 14.7894L12.5315 16.2339C12.5484 16.2339 12.5484 16.2339 12.5686 16.2542C12.9972 16.4095 13.8174 16.5647 14.1481 16.3116C14.2258 16.2542 14.3236 16.1563 14.3236 15.8627V13.2875C14.3236 13.0918 14.4823 12.9365 14.6746 12.9365C14.8704 12.9365 15.0256 13.0918 15.0256 13.2875V15.8627C15.0256 16.4095 14.7725 16.72 14.5599 16.8583C14.2865 17.0541 13.9355 17.1115 13.6014 17.1115Z" fill="#99AF61"/>
<path fill-rule="evenodd" clip-rule="evenodd" d="M4.7659 17.6581C4.70852 17.6581 4.65114 17.6581 4.61064 17.6379L0.631456 16.7603C0.415452 16.6996 0.239949 16.5646 0.125198 16.3891C-0.0131796 16.1731 -0.0334299 15.8828 0.0475714 15.6095L0.688832 13.5608C0.786708 13.2469 1.00271 13.014 1.25584 12.879C1.45159 12.7812 1.66422 12.7609 1.85997 12.8385L5.68391 14.1649C6.13279 14.3033 6.36567 14.8096 6.23067 15.3158L5.72104 16.9156C5.54553 17.3645 5.17765 17.6581 4.7659 17.6581ZM0.709082 15.8052C0.688832 15.9031 0.688832 15.9976 0.729332 16.0583C0.749582 16.0955 0.766458 16.1157 0.786708 16.1157L4.74565 16.973C4.84352 16.9932 5.00215 16.8954 5.05953 16.6996L5.56578 15.1201C5.60628 14.9648 5.54553 14.8467 5.46791 14.8298L1.6271 13.4832C1.60685 13.4832 1.56635 13.4832 1.54947 13.5034C1.46847 13.5405 1.39084 13.6384 1.33347 13.7768L0.709082 15.8052Z" fill="#99AF61"/>
<path fill-rule="evenodd" clip-rule="evenodd" d="M18.8901 20.4088C18.6943 20.4088 18.5391 20.2501 18.5391 20.0578C18.5391 19.862 18.6943 19.7068 18.8901 19.7068C19.8655 19.7068 20.3717 19.1195 20.6451 18.6504C21.0366 17.9315 21.0164 16.9358 20.9759 15.9807C20.9556 15.7073 20.9556 15.4542 20.9556 15.1977C20.9556 15.0053 21.1142 14.8467 21.3066 14.8467C21.5024 14.8467 21.661 15.0053 21.661 15.1977C21.661 15.4339 21.661 15.6871 21.6779 15.9402C21.7184 16.9358 21.7555 18.0867 21.2695 18.9642C20.743 19.8991 19.9026 20.4088 18.8901 20.4088Z" fill="#99AF61"/>
<path fill-rule="evenodd" clip-rule="evenodd" d="M19.2991 10.7528C18.3439 10.7528 17.5643 9.96977 17.5643 8.99438C17.5643 8.95725 17.5643 8.937 17.5643 8.89988C17.4664 8.91675 17.3483 8.937 17.2504 8.937C16.275 8.937 15.4954 8.15736 15.4954 7.20222C15.4954 7.0436 15.5156 6.88834 15.5528 6.73309C15.2018 6.40234 15.0094 5.95345 15.0094 5.46407C15.0094 5.23119 15.0465 4.99831 15.1444 4.78231C14.6955 4.45156 14.4424 3.9453 14.4424 3.37829C14.4424 2.42315 15.222 1.64014 16.1772 1.64014C16.7847 1.64014 17.3483 1.95402 17.6419 2.44002C17.8546 2.34552 18.0908 2.30502 18.3237 2.30502C19.181 2.30502 19.8863 2.90916 20.0618 3.70904C20.9562 3.78667 21.6616 4.54943 21.6616 5.46407C21.6616 6.03108 21.368 6.55759 20.9191 6.88834C21.0372 7.1246 21.0744 7.35748 21.0744 7.63086C21.0744 7.88398 21.017 8.11686 20.9191 8.33287C21.017 8.54887 21.0744 8.802 21.0744 9.03488C21.0744 9.95289 20.2745 10.7528 19.2991 10.7528ZM18.0908 7.96161C18.1684 7.96161 18.2461 8.00211 18.3237 8.05949C18.4418 8.17761 18.4789 8.35312 18.3844 8.48812C18.2866 8.64337 18.2461 8.81887 18.2461 9.01463C18.2461 9.60189 18.7152 10.0879 19.2991 10.0879C19.8863 10.0879 20.3724 9.60189 20.3724 9.01463C20.3724 8.81887 20.315 8.64337 20.2171 8.48812C20.1563 8.37337 20.1563 8.23499 20.2171 8.13711C20.315 8.00211 20.3521 7.80636 20.3521 7.6106C20.3521 7.37773 20.2745 7.16172 20.1192 6.96597C20.0618 6.88834 20.0416 6.77359 20.0618 6.67572C20.0787 6.57784 20.1563 6.47996 20.2542 6.43946C20.6457 6.28421 20.9191 5.87583 20.9191 5.46407C20.9191 4.88019 20.45 4.3908 19.8661 4.3908C19.8458 4.3908 19.8458 4.3908 19.8256 4.3908C19.7885 4.3908 19.748 4.3908 19.7108 4.3908C19.5151 4.3908 19.3598 4.23555 19.3598 4.0398C19.3598 3.43566 18.8705 2.96991 18.2866 2.96991C18.0503 2.96991 17.8377 3.04753 17.6622 3.16229C17.5643 3.22304 17.4664 3.23991 17.3483 3.20279C17.2504 3.16229 17.1728 3.08466 17.1357 2.98678C16.9973 2.5784 16.5889 2.28477 16.14 2.28477C15.5528 2.28477 15.087 2.7539 15.087 3.33779C15.087 3.74954 15.3199 4.1208 15.7114 4.31318C15.8093 4.35368 15.8667 4.43131 15.8869 4.52918C15.9072 4.62706 15.8869 4.72493 15.8464 4.80256C15.7283 4.97806 15.6709 5.19069 15.6709 5.4067C15.6709 5.7577 15.8464 6.08846 16.14 6.28421C16.275 6.38209 16.3358 6.55759 16.2582 6.71284C16.1974 6.83097 16.1603 6.98622 16.1603 7.14147C16.1603 7.72873 16.6463 8.19449 17.2336 8.19449C17.4462 8.19449 17.6791 8.11686 17.8748 7.98186C17.9524 7.98186 18.0132 7.96161 18.0908 7.96161Z" fill="#99AF61"/>
</g>
<defs>
<clipPath id="clip0_221081_2480">
<rect width="24" height="24" fill="white"/>
</clipPath>
</defs>
</svg>
