<svg width="24" height="24" viewBox="0 0 24 24" fill="none" xmlns="http://www.w3.org/2000/svg">
<path fill-rule="evenodd" clip-rule="evenodd" d="M21.5405 14.2442H21.3245V18.5642C21.3245 19.8122 20.3165 20.8322 19.0685 20.8322C17.8085 20.8322 16.8005 19.8122 16.8005 18.5642V10.1882C16.8005 9.46816 16.2125 8.88016 15.4925 8.88016C14.7725 8.88016 14.1845 9.46816 14.1845 10.1882V13.5602L14.6645 14.0282C14.8445 14.2202 14.8445 14.5202 14.6645 14.7122L13.1765 16.1882C13.4045 16.6922 13.5365 17.2442 13.5365 17.8322V18.2882C13.5365 20.4602 11.7605 22.2362 9.58847 22.2362H5.95247C3.76847 22.2362 2.00447 20.4602 2.00447 18.2882V17.8322C2.00447 15.8162 3.51647 14.1362 5.47247 13.9082V12.9962C5.47247 12.6722 5.47247 12.3122 5.73647 12.0482C5.78447 11.9882 5.85647 11.9402 5.92847 11.9042V10.6082C5.85647 10.5722 5.78447 10.5242 5.73647 10.4642C5.47247 10.2002 5.47247 9.84016 5.47247 9.51616V8.64016H4.36847C4.17647 8.64016 4.00847 8.53216 3.93647 8.35216L3.25247 6.85216H2.46047C2.18447 6.85216 1.98047 6.63616 1.98047 6.37216C1.98047 6.10816 2.18447 5.89216 2.46047 5.89216H3.56447H6.33647V4.70416C6.02447 4.58416 5.70047 4.28416 5.49647 3.64816L5.10047 2.38816C5.05247 2.24416 5.07647 2.07616 5.16047 1.95616C5.25647 1.83616 5.40047 1.76416 5.55647 1.76416H9.98447C10.1405 1.76416 10.2845 1.83616 10.3685 1.95616C10.4645 2.07616 10.4885 2.24416 10.4405 2.38816L10.0445 3.64816C9.84047 4.28416 9.51647 4.58416 9.20447 4.70416V5.89216H11.9765H13.0805C13.3445 5.89216 13.5605 6.10816 13.5605 6.37216C13.5605 6.63616 13.3445 6.85216 13.0805 6.85216H12.2885L11.6045 8.35216C11.5325 8.53216 11.3525 8.64016 11.1725 8.64016H10.0685V9.51616C10.0685 9.84016 10.0685 10.2002 9.80447 10.4642C9.74447 10.5242 9.68447 10.5722 9.61247 10.6082V11.9042C9.68447 11.9402 9.74447 11.9882 9.80447 12.0482C10.0685 12.3122 10.0685 12.6722 10.0685 12.9962V13.9082C10.5005 13.9562 10.9085 14.0762 11.2925 14.2682L12.7565 12.8042C12.8405 12.7202 12.9605 12.6602 13.0925 12.6602C13.1405 12.6602 13.1765 12.6722 13.2245 12.6842V10.1882C13.2245 8.94016 14.2445 7.92016 15.4925 7.92016C16.7405 7.92016 17.7605 8.94016 17.7605 10.1882V18.5642C17.7605 19.2842 18.3485 19.8722 19.0685 19.8722C19.7885 19.8722 20.3645 19.2842 20.3645 18.5642V14.2442H20.1485C19.8845 14.2442 19.6685 14.0282 19.6685 13.7642V11.6882C19.6685 11.4242 19.8845 11.2082 20.1485 11.2082H20.3645V9.68416C20.3645 9.40816 20.5805 9.20416 20.8445 9.20416C21.1085 9.20416 21.3245 9.40816 21.3245 9.68416V11.2082H21.5405C21.8165 11.2082 22.0205 11.4242 22.0205 11.6882V13.7642C22.0205 14.0282 21.8165 14.2442 21.5405 14.2442ZM12.2045 16.3682C12.1925 16.3682 12.1805 16.3562 12.1805 16.3442C11.9285 15.9002 11.5565 15.5282 11.1245 15.2642C11.1125 15.2642 11.1005 15.2522 11.0885 15.2402C10.6445 14.9882 10.1285 14.8322 9.58847 14.8322H5.95247C4.30847 14.8322 2.96447 16.1762 2.96447 17.8322V18.2882C2.96447 19.9322 4.30847 21.2762 5.95247 21.2762H9.58847C11.2325 21.2762 12.5765 19.9322 12.5765 18.2882V17.8322C12.5765 17.3042 12.4445 16.8002 12.2045 16.3682ZM12.1205 14.7962C12.3125 14.9642 12.5045 15.1442 12.6605 15.3482L13.6445 14.3762L13.3805 14.1122C13.3685 14.1002 13.3565 14.1002 13.3565 14.0882L13.0925 13.8242L12.1205 14.7962ZM6.43247 13.8722H9.10847V12.9842C9.10847 12.9242 9.10847 12.8402 9.09647 12.7682C8.84447 12.7562 8.65247 12.5402 8.65247 12.2882V10.2242C8.65247 9.97216 8.84447 9.75616 9.09647 9.74416C9.10847 9.68416 9.10847 9.58816 9.10847 9.52816V8.64016H6.43247V9.52816C6.43247 9.58816 6.43247 9.68416 6.43247 9.74416C6.68447 9.75616 6.88847 9.97216 6.88847 10.2242V12.2882C6.88847 12.5402 6.68447 12.7562 6.43247 12.7682C6.43247 12.8402 6.43247 12.9242 6.43247 12.9842V13.8722ZM4.68047 7.68016H9.58847H10.8605L11.2325 6.85216H8.72447H6.81647H4.30847L4.68047 7.68016ZM7.29647 5.89216H8.24447V4.78816H7.29647V5.89216ZM6.20447 2.72416L6.40847 3.34816C6.56447 3.82816 6.70847 3.82816 6.75647 3.82816H8.77247C8.82047 3.82816 8.97647 3.82816 9.12047 3.34816L9.32447 2.72416H6.20447ZM20.6285 13.2842H20.8445H21.0605V12.1682H20.8445H20.6285V13.2842Z" fill="#99AF61"/>
</svg>
