<svg width="24" height="20" viewBox="0 0 24 20" fill="none" xmlns="http://www.w3.org/2000/svg">
<path d="M12.7464 18.8326C4.15945 8.88318 22.8241 0.76495 22.9027 0.730627L22.9022 0.729624C23.0021 0.68563 23.1112 0.666735 23.22 0.674585C23.3288 0.682434 23.434 0.716793 23.5265 0.77466C23.619 0.832527 23.6959 0.912143 23.7505 1.00657C23.8052 1.10099 23.8359 1.20735 23.84 1.31637C23.949 2.34355 25.8372 21.5944 13.1663 19.1054L13.1653 19.1059C12.9955 19.0727 12.8453 18.9748 12.7464 18.8328V18.8326ZM22.5891 2.35157C19.2477 3.99055 7.49579 10.4665 13.6473 17.8337C23.1052 19.4807 22.8401 6.06846 22.5891 2.35157Z" fill="#99AF61"/>
<path d="M12.717 18.1188C12.6733 18.1945 12.6449 18.2782 12.6336 18.3649C12.6222 18.4516 12.6281 18.5397 12.6508 18.6242C12.6735 18.7086 12.7127 18.7877 12.766 18.857C12.8194 18.9263 12.8858 18.9844 12.9617 19.028C13.0375 19.0716 13.1212 19.0998 13.2079 19.111C13.2946 19.1222 13.3827 19.1162 13.4671 19.0933C13.5515 19.0704 13.6306 19.0311 13.6998 18.9777C13.769 18.9242 13.827 18.8576 13.8704 18.7817L18.8094 10.227C18.897 10.0741 18.9202 9.8927 18.8741 9.72262C18.828 9.55255 18.7163 9.40771 18.5636 9.31991C18.4108 9.23211 18.2294 9.20851 18.0592 9.2543C17.8891 9.30009 17.7441 9.41152 17.656 9.56414L12.717 18.1188Z" fill="#99AF61"/>
<path d="M15.5607 9.90378C15.479 9.74736 15.3386 9.6298 15.1703 9.57694C15.0019 9.52408 14.8195 9.54027 14.6631 9.62193C14.5066 9.70359 14.3891 9.84404 14.3362 10.0124C14.2834 10.1807 14.2995 10.3632 14.3812 10.5196L15.8441 13.3188C15.8845 13.3962 15.9398 13.4649 16.0068 13.521C16.0738 13.5771 16.1512 13.6194 16.2345 13.6456C16.3179 13.6718 16.4056 13.6813 16.4926 13.6736C16.5796 13.6658 16.6643 13.6411 16.7417 13.6006C16.8192 13.5602 16.8879 13.5049 16.944 13.4379C17 13.3709 17.0424 13.2935 17.0686 13.2102C17.0947 13.1268 17.1042 13.0391 17.0965 12.9521C17.0888 12.8651 17.064 12.7804 17.0236 12.703L15.5607 9.90378Z" fill="#99AF61"/>
<path d="M17.8474 15.9173C17.9341 15.9057 18.0176 15.877 18.0933 15.8331C18.1689 15.7891 18.2352 15.7307 18.2882 15.6611C18.3413 15.5916 18.3802 15.5122 18.4026 15.4277C18.425 15.3431 18.4305 15.2549 18.4188 15.1682C18.4072 15.0815 18.3785 14.998 18.3346 14.9223C18.2906 14.8467 18.2322 14.7804 18.1626 14.7274C18.0931 14.6743 18.0138 14.6354 17.9292 14.613C17.8446 14.5906 17.7565 14.5851 17.6697 14.5968L14.8255 14.9836C14.7387 14.9953 14.6552 15.0239 14.5795 15.0678C14.5039 15.1118 14.4376 15.1702 14.3846 15.2398C14.3315 15.3093 14.2927 15.3887 14.2703 15.4732C14.2479 15.5578 14.2423 15.646 14.254 15.7327C14.2657 15.8194 14.2943 15.903 14.3382 15.9786C14.3822 16.0542 14.4406 16.1205 14.5102 16.1736C14.5797 16.2266 14.6591 16.2655 14.7436 16.2879C14.8282 16.3103 14.9164 16.3158 15.0031 16.3041L17.8474 15.9173Z" fill="#99AF61"/>
<path d="M12.3544 8.51195C9.06541 5.71225 3.64641 4.414 1.49158 3.9886C2.13896 7.28159 4.81239 18.1968 11.6735 17.368C10.8024 15.9322 10.4722 14.527 10.5385 13.1766C10.6215 11.4955 11.3207 9.92896 12.3544 8.5117V8.51195ZM0.770302 2.5072C0.80237 2.51196 9.31519 3.78566 13.6762 7.90716C13.7446 7.96209 13.8015 8.02995 13.8436 8.10686C13.8858 8.18378 13.9124 8.26825 13.9219 8.35544C13.9314 8.44263 13.9237 8.53085 13.8991 8.61505C13.8745 8.69924 13.8336 8.77778 13.7787 8.84616L13.2576 8.42777L13.7769 8.84541C12.6976 10.1895 11.9465 11.6742 11.8696 13.2395C11.805 14.5505 12.2149 15.9457 13.3049 17.3998C13.3774 17.4859 13.427 17.589 13.449 17.6994C13.4711 17.8097 13.4649 17.9239 13.4311 18.0313C13.3973 18.1387 13.3369 18.2357 13.2555 18.3135C13.1741 18.3913 13.0745 18.4473 12.9657 18.4764L12.9637 18.4753C3.01833 21.1192 0.198088 4.44732 0.0197095 3.32644C-0.00684389 3.21954 -0.00656332 3.10774 0.0205291 3.00097C0.0476215 2.89421 0.100687 2.79579 0.174998 2.71449C0.24931 2.63319 0.342566 2.57151 0.44647 2.53495C0.550374 2.49839 0.661703 2.48809 0.770553 2.50494L0.770051 2.50745L0.770302 2.5072Z" fill="#99AF61"/>
<path d="M6.47611 8.54125C6.3362 8.43428 6.15962 8.38707 5.985 8.40994C5.81037 8.4328 5.6519 8.52389 5.54424 8.66327C5.43658 8.80265 5.38849 8.97899 5.41049 9.15373C5.43249 9.32847 5.52279 9.48739 5.66163 9.59574L8.26992 11.6193L10.8058 13.5867C10.875 13.6407 10.9542 13.6805 11.0388 13.7038C11.1234 13.7271 11.2118 13.7334 11.2989 13.7225C11.386 13.7115 11.47 13.6835 11.5462 13.6399C11.6224 13.5964 11.6893 13.5382 11.7429 13.4687C11.7966 13.3993 11.836 13.3199 11.8588 13.2352C11.8817 13.1504 11.8876 13.062 11.8762 12.975C11.8648 12.888 11.8364 12.8041 11.7924 12.7281C11.7485 12.6521 11.69 12.5855 11.6203 12.5322L9.0844 10.5648L6.47611 8.54125Z" fill="#99AF61"/>
<path d="M5.86479 11.6485C5.7053 11.7225 5.5816 11.8567 5.52069 12.0217C5.45979 12.1866 5.46663 12.369 5.53973 12.5289C5.61284 12.6889 5.74625 12.8134 5.91085 12.8753C6.07544 12.9372 6.25785 12.9314 6.41822 12.8593L8.9541 11.6978C9.11467 11.6244 9.2395 11.4903 9.30114 11.3248C9.36279 11.1594 9.35619 10.9763 9.2828 10.8157C9.20941 10.6551 9.07524 10.5303 8.90981 10.4687C8.74438 10.407 8.56124 10.4136 8.40068 10.487L5.86479 11.6485Z" fill="#99AF61"/>
</svg>
