<svg width="24" height="24" viewBox="0 0 24 24" fill="none" xmlns="http://www.w3.org/2000/svg">
<path fill-rule="evenodd" clip-rule="evenodd" d="M23.5714 20.8125H0.408381C0.182253 20.8125 0 20.6303 0 20.4075V17.7682C0 17.5421 0.182253 17.3598 0.408381 17.3598H23.5714C23.7975 17.3598 23.9797 17.5421 23.9797 17.7682V20.4075C23.9797 20.6303 23.7975 20.8125 23.5714 20.8125ZM7.78962 15.4361C6.36872 15.4361 5.29546 14.7509 4.69132 13.4549C4.05681 12.1015 3.96231 10.1474 4.42469 7.95357C4.86345 5.87453 5.72746 3.95413 6.79398 2.67498C7.29686 2.0776 7.68837 1.65234 8.1845 1.65234C8.68401 1.65234 9.06202 2.06748 9.6189 2.75599C10.4525 3.77863 11.1545 5.19952 11.6237 6.76555C13.5205 5.32778 15.8999 4.31189 17.8405 4.13976C18.1578 4.11276 18.3805 4.09926 18.5662 4.09926C18.9172 4.09926 19.3154 4.13638 19.5787 4.43001C19.8993 4.78777 19.8689 5.33453 19.7812 6.19179C19.5888 8.05482 18.6134 10.3634 17.2364 12.2129C15.7109 14.2615 13.9491 15.4361 12.3966 15.4361C11.7351 15.4361 11.1174 15.2302 10.5605 14.8319C9.92265 15.2943 9.11602 15.4968 8.17438 15.4192C8.04275 15.4293 7.9145 15.4361 7.78962 15.4361ZM11.8498 7.62281C12.1367 8.84796 12.2616 10.0731 12.1941 11.1632L14.3777 8.97621C14.5364 8.81758 14.7962 8.81758 14.9549 8.97621C15.1135 9.13484 15.1135 9.39134 14.9549 9.55334L13.6926 10.8156L15.2316 11.0552C15.4544 11.0924 15.6062 11.2982 15.5691 11.521C15.5354 11.7471 15.3227 11.8956 15.1034 11.8619L12.9805 11.5277L11.9882 12.52C11.8971 12.8676 11.7857 13.1883 11.6439 13.4819C11.5089 13.7722 11.3469 14.0287 11.1647 14.2548C11.5461 14.4978 11.9612 14.6193 12.3966 14.6193C15.2215 14.6193 18.6033 9.66809 18.9712 6.11079C19.0049 5.77666 19.0758 5.09152 18.9745 4.97677C18.88 4.87214 18.205 4.92614 17.9114 4.94977C16.0551 5.11515 13.6487 6.18166 11.8498 7.62281ZM8.1845 2.46573C8.08325 2.46573 7.82675 2.71211 7.41837 3.19812C6.44973 4.35914 5.62621 6.19854 5.22458 8.11894C4.8027 10.1136 4.87695 11.9328 5.42708 13.1106C5.89284 14.1063 6.67923 14.6125 7.766 14.6193V13.2456L6.02784 11.9766C5.84559 11.845 5.80509 11.5919 5.94009 11.4096C6.07172 11.2274 6.32485 11.1869 6.5071 11.3185L7.766 12.2365V8.5442C7.766 8.31807 7.94825 8.13582 8.17438 8.13582C8.40051 8.13582 8.58276 8.31807 8.58276 8.5442V10.3296L9.83828 9.41159C10.0205 9.27996 10.277 9.32046 10.4087 9.50272C10.5403 9.68497 10.5032 9.9381 10.3209 10.0697L8.58276 11.3387V14.6193C9.32527 14.6125 9.93953 14.3729 10.3918 13.897C11.1107 13.1444 11.4516 11.7809 11.3841 10.1237C11.2862 7.78144 10.358 4.95652 8.98776 3.26899C8.79201 3.02937 8.333 2.46573 8.1845 2.46573ZM21.7657 16.3338C21.543 16.3338 21.3607 16.1516 21.3607 15.9254V14.1029C21.3607 13.8802 21.543 13.6979 21.7657 13.6979C21.9918 13.6979 22.1741 13.8802 22.1741 14.1029V15.9254C22.1741 16.1516 21.9918 16.3338 21.7657 16.3338ZM23.5714 14.7914C23.3486 14.7914 23.163 14.6058 23.163 14.383V12.5605C23.163 12.3378 23.3486 12.1555 23.5714 12.1555C23.7975 12.1555 23.9797 12.3378 23.9797 12.5605V14.383C23.9797 14.6058 23.7975 14.7914 23.5714 14.7914ZM0.816763 19.9991H6.6421V18.1766H0.816763V19.9991ZM21.3607 19.9991V18.1766H7.45549V19.9991H21.3607ZM22.1741 19.9991H23.163V18.1766H22.1741V19.9991Z" fill="#99AF61"/>
</svg>
