<svg width="24" height="19" viewBox="0 0 24 19" fill="none" xmlns="http://www.w3.org/2000/svg">
<path d="M12.7464 18.1597C4.15945 8.21033 22.8241 0.0920984 22.9027 0.0577755L22.9022 0.0567724C23.0021 0.0127789 23.1112 -0.00611646 23.22 0.00173311C23.3288 0.00958267 23.434 0.0439414 23.5265 0.101808C23.619 0.159675 23.6959 0.239291 23.7505 0.333715C23.8052 0.428139 23.8359 0.534501 23.84 0.643519C23.949 1.6707 25.8372 20.9216 13.1663 18.4325L13.1653 18.433C12.9955 18.3999 12.8453 18.3019 12.7464 18.16V18.1597ZM22.5891 1.67872C19.2477 3.3177 7.49579 9.7937 13.6473 17.1608C23.1052 18.8078 22.8401 5.39561 22.5891 1.67872Z" fill="#99AF61"/>
<path d="M12.717 17.4459C12.6733 17.5217 12.6449 17.6053 12.6336 17.692C12.6222 17.7787 12.6281 17.8668 12.6508 17.9513C12.6735 18.0357 12.7127 18.1149 12.766 18.1842C12.8194 18.2535 12.8858 18.3116 12.9617 18.3552C13.0375 18.3987 13.1212 18.4269 13.2079 18.4381C13.2946 18.4494 13.3827 18.4433 13.4671 18.4205C13.5515 18.3976 13.6306 18.3583 13.6998 18.3048C13.769 18.2514 13.827 18.1848 13.8704 18.1089L18.8094 9.5542C18.897 9.40126 18.9202 9.21985 18.8741 9.04977C18.828 8.8797 18.7163 8.73486 18.5636 8.64706C18.4108 8.55925 18.2294 8.53566 18.0592 8.58145C17.8891 8.62724 17.7441 8.73867 17.656 8.89129L12.717 17.4459Z" fill="#99AF61"/>
<path d="M15.5607 9.23092C15.479 9.07451 15.3386 8.95695 15.1703 8.90409C15.0019 8.85123 14.8195 8.86741 14.6631 8.94908C14.5066 9.03074 14.3891 9.17119 14.3362 9.33953C14.2834 9.50787 14.2995 9.69032 14.3812 9.84673L15.8441 12.6459C15.8845 12.7234 15.9398 12.7921 16.0068 12.8482C16.0738 12.9043 16.1512 12.9466 16.2345 12.9728C16.3179 12.9989 16.4056 13.0084 16.4926 13.0007C16.5796 12.993 16.6643 12.9682 16.7417 12.9278C16.8192 12.8873 16.8879 12.832 16.944 12.7651C17 12.6981 17.0424 12.6207 17.0686 12.5373C17.0947 12.454 17.1042 12.3663 17.0965 12.2792C17.0888 12.1922 17.064 12.1076 17.0236 12.0301L15.5607 9.23092Z" fill="#99AF61"/>
<path d="M17.8474 15.2445C17.9341 15.2328 18.0176 15.2042 18.0933 15.1602C18.1689 15.1163 18.2352 15.0578 18.2882 14.9883C18.3413 14.9187 18.3802 14.8394 18.4026 14.7548C18.425 14.6702 18.4305 14.5821 18.4188 14.4954C18.4072 14.4087 18.3785 14.3251 18.3346 14.2495C18.2906 14.1738 18.2322 14.1076 18.1626 14.0545C18.0931 14.0014 18.0138 13.9626 17.9292 13.9402C17.8446 13.9178 17.7565 13.9123 17.6697 13.9239L14.8255 14.3107C14.7387 14.3224 14.6552 14.351 14.5795 14.395C14.5039 14.4389 14.4376 14.4974 14.3846 14.5669C14.3315 14.6365 14.2927 14.7158 14.2703 14.8004C14.2479 14.885 14.2423 14.9731 14.254 15.0598C14.2657 15.1465 14.2943 15.2301 14.3382 15.3057C14.3822 15.3814 14.4406 15.4476 14.5102 15.5007C14.5797 15.5538 14.6591 15.5926 14.7436 15.615C14.8282 15.6374 14.9164 15.643 15.0031 15.6313L17.8474 15.2445Z" fill="#99AF61"/>
<path d="M12.3544 7.8391C9.06541 5.0394 3.64641 3.74115 1.49158 3.31575C2.13896 6.60874 4.81239 17.5239 11.6735 16.6951C10.8024 15.2593 10.4722 13.8541 10.5385 12.5037C10.6215 10.8227 11.3207 9.2561 12.3544 7.83885V7.8391ZM0.770302 1.83435C0.80237 1.83911 9.31519 3.11281 13.6762 7.23431C13.7446 7.28924 13.8015 7.3571 13.8436 7.43401C13.8858 7.51093 13.9124 7.59539 13.9219 7.68259C13.9314 7.76978 13.9237 7.858 13.8991 7.94219C13.8745 8.02639 13.8336 8.10493 13.7787 8.17331L13.2576 7.75492L13.7769 8.17256C12.6976 9.51666 11.9465 11.0013 11.8696 12.5666C11.805 13.8777 12.2149 15.2729 13.3049 16.727C13.3774 16.8131 13.427 16.9161 13.449 17.0265C13.4711 17.1369 13.4649 17.2511 13.4311 17.3584C13.3973 17.4658 13.3369 17.5629 13.2555 17.6407C13.1741 17.7185 13.0745 17.7745 12.9657 17.8035L12.9637 17.8025C3.01833 20.4464 0.198088 3.77447 0.0197095 2.65359C-0.00684389 2.54669 -0.00656332 2.43488 0.0205291 2.32812C0.0476215 2.22136 0.100687 2.12294 0.174998 2.04164C0.24931 1.96033 0.342566 1.89866 0.44647 1.8621C0.550374 1.82554 0.661703 1.81523 0.770553 1.83209L0.770051 1.8346L0.770302 1.83435Z" fill="#99AF61"/>
<path d="M6.47611 7.8684C6.3362 7.76143 6.15962 7.71422 5.985 7.73709C5.81037 7.75995 5.6519 7.85103 5.54424 7.99042C5.43658 8.1298 5.38849 8.30614 5.41049 8.48088C5.43249 8.65562 5.52279 8.81454 5.66163 8.92288L8.26992 10.9464L10.8058 12.9139C10.875 12.9679 10.9542 13.0076 11.0388 13.0309C11.1234 13.0542 11.2118 13.0606 11.2989 13.0496C11.386 13.0387 11.47 13.0106 11.5462 12.9671C11.6224 12.9235 11.6893 12.8653 11.7429 12.7959C11.7966 12.7264 11.836 12.647 11.8588 12.5623C11.8817 12.4776 11.8876 12.3892 11.8762 12.3021C11.8648 12.2151 11.8364 12.1312 11.7924 12.0552C11.7485 11.9792 11.69 11.9127 11.6203 11.8594L9.0844 9.89194L6.47611 7.8684Z" fill="#99AF61"/>
<path d="M5.86479 10.9756C5.7053 11.0497 5.5816 11.1838 5.52069 11.3488C5.45979 11.5138 5.46663 11.6961 5.53973 11.8561C5.61284 12.016 5.74625 12.1405 5.91085 12.2024C6.07544 12.2643 6.25785 12.2586 6.41822 12.1864L8.9541 11.025C9.11467 10.9516 9.2395 10.8174 9.30114 10.652C9.36279 10.4866 9.35619 10.3034 9.2828 10.1428C9.20941 9.98228 9.07524 9.85744 8.90981 9.7958C8.74438 9.73416 8.56124 9.74076 8.40068 9.81415L5.86479 10.9756Z" fill="#99AF61"/>
</svg>
