<svg width="24" height="24" viewBox="0 0 24 24" fill="none" xmlns="http://www.w3.org/2000/svg">
<path d="M15 22.875H9C8.90054 22.875 8.80516 22.8355 8.73483 22.7652C8.66451 22.6948 8.625 22.5995 8.625 22.5V9C8.625 8.90054 8.66451 8.80516 8.73483 8.73483C8.80516 8.66451 8.90054 8.625 9 8.625H15C15.0995 8.625 15.1948 8.66451 15.2652 8.73483C15.3355 8.80516 15.375 8.90054 15.375 9V22.5C15.375 22.5995 15.3355 22.6948 15.2652 22.7652C15.1948 22.8355 15.0995 22.875 15 22.875ZM9.375 22.125H14.625V9.375H9.375V22.125Z" fill="#99AF61"/>
<path d="M15 22.875H9C8.90054 22.875 8.80516 22.8355 8.73483 22.7652C8.66451 22.6948 8.625 22.5995 8.625 22.5V18.75C8.625 18.6505 8.66451 18.5552 8.73483 18.4848C8.80516 18.4145 8.90054 18.375 9 18.375H15C15.0995 18.375 15.1948 18.4145 15.2652 18.4848C15.3355 18.5552 15.375 18.6505 15.375 18.75V22.5C15.375 22.5995 15.3355 22.6948 15.2652 22.7652C15.1948 22.8355 15.0995 22.875 15 22.875ZM9.375 22.125H14.625V19.125H9.375V22.125Z" fill="#99AF61"/>
<path d="M12 15.375C11.6292 15.375 11.2666 15.265 10.9583 15.059C10.65 14.853 10.4096 14.5601 10.2677 14.2175C10.1258 13.8749 10.0887 13.4979 10.161 13.1342C10.2334 12.7705 10.412 12.4364 10.6742 12.1742C10.9364 11.912 11.2705 11.7334 11.6342 11.661C11.9979 11.5887 12.3749 11.6258 12.7175 11.7677C13.0601 11.9096 13.353 12.15 13.559 12.4583C13.765 12.7666 13.875 13.1292 13.875 13.5C13.875 13.7462 13.8265 13.99 13.7323 14.2175C13.638 14.445 13.4999 14.6517 13.3258 14.8258C13.1517 14.9999 12.945 15.138 12.7175 15.2323C12.49 15.3265 12.2462 15.375 12 15.375ZM12 12.375C11.7775 12.375 11.56 12.441 11.375 12.5646C11.19 12.6882 11.0458 12.8639 10.9606 13.0695C10.8755 13.275 10.8532 13.5012 10.8966 13.7195C10.94 13.9377 11.0472 14.1382 11.2045 14.2955C11.3618 14.4528 11.5623 14.56 11.7805 14.6034C11.9988 14.6468 12.225 14.6245 12.4305 14.5394C12.6361 14.4542 12.8118 14.31 12.9354 14.125C13.059 13.94 13.125 13.7225 13.125 13.5C13.125 13.2016 13.0065 12.9155 12.7955 12.7045C12.5845 12.4935 12.2984 12.375 12 12.375Z" fill="#99AF61"/>
<path d="M13.125 9.375H10.875C10.7755 9.375 10.6802 9.33549 10.6098 9.26517C10.5395 9.19484 10.5 9.09946 10.5 9V6.75C10.5 6.65054 10.5395 6.55516 10.6098 6.48483C10.6802 6.41451 10.7755 6.375 10.875 6.375H13.125C13.2245 6.375 13.3198 6.41451 13.3902 6.48483C13.4605 6.55516 13.5 6.65054 13.5 6.75V9C13.5 9.09946 13.4605 9.19484 13.3902 9.26517C13.3198 9.33549 13.2245 9.375 13.125 9.375ZM11.25 8.625H12.75V7.125H11.25V8.625Z" fill="#99AF61"/>
<path d="M15 9.375H9C8.90054 9.375 8.80516 9.33549 8.73483 9.26517C8.66451 9.19484 8.625 9.09946 8.625 9V5.25C8.625 5.15054 8.66451 5.05516 8.73483 4.98484C8.80516 4.91451 8.90054 4.875 9 4.875H15C15.0995 4.875 15.1948 4.91451 15.2652 4.98484C15.3355 5.05516 15.375 5.15054 15.375 5.25V9C15.375 9.09946 15.3355 9.19484 15.2652 9.26517C15.1948 9.33549 15.0995 9.375 15 9.375ZM9.375 8.625H14.625V5.625H9.375V8.625Z" fill="#99AF61"/>
<path d="M12 7.125C11.9005 7.125 11.8052 7.08549 11.7348 7.01517C11.6645 6.94484 11.625 6.84946 11.625 6.75V5.25C11.625 5.15054 11.6645 5.05516 11.7348 4.98484C11.8052 4.91451 11.9005 4.875 12 4.875C12.0995 4.875 12.1948 4.91451 12.2652 4.98484C12.3355 5.05516 12.375 5.15054 12.375 5.25V6.75C12.375 6.84946 12.3355 6.94484 12.2652 7.01517C12.1948 7.08549 12.0995 7.125 12 7.125Z" fill="#99AF61"/>
<path d="M13.875 5.625H10.125C10.0255 5.625 9.93016 5.58549 9.85983 5.51516C9.78951 5.44484 9.75 5.34946 9.75 5.25V1.5C9.75 1.40054 9.78951 1.30516 9.85983 1.23483C9.93016 1.16451 10.0255 1.125 10.125 1.125H13.875C13.9745 1.125 14.0698 1.16451 14.1402 1.23483C14.2105 1.30516 14.25 1.40054 14.25 1.5V5.25C14.25 5.34946 14.2105 5.44484 14.1402 5.51516C14.0698 5.58549 13.9745 5.625 13.875 5.625ZM10.5 4.875H13.5V1.875H10.5V4.875Z" fill="#99AF61"/>
</svg>
