<svg width="24" height="24" viewBox="0 0 24 24" fill="none" xmlns="http://www.w3.org/2000/svg">
<path d="M11.0498 9.26709C10.9553 9.26709 10.8646 9.30464 10.7978 9.37149C10.7309 9.43833 10.6934 9.52899 10.6934 9.62353V14.1384C10.6934 14.2329 10.7309 14.3236 10.7978 14.3904C10.8646 14.4573 10.9553 14.4948 11.0498 14.4948C11.1443 14.4948 11.235 14.4573 11.3018 14.3904C11.3687 14.3236 11.4062 14.2329 11.4062 14.1384V9.62353C11.4062 9.52899 11.3687 9.43833 11.3018 9.37149C11.235 9.30464 11.1443 9.26709 11.0498 9.26709Z" fill="#99AF61"/>
<path d="M13.3066 14.1384V9.62353C13.3066 9.52899 13.2691 9.43833 13.2022 9.37149C13.1354 9.30464 13.0447 9.26709 12.9502 9.26709C12.8557 9.26709 12.765 9.30464 12.6981 9.37149C12.6313 9.43833 12.5938 9.52899 12.5938 9.62353V14.1384C12.5938 14.2329 12.6313 14.3236 12.6981 14.3904C12.765 14.4573 12.8557 14.4948 12.9502 14.4948C13.0447 14.4948 13.1354 14.4573 13.2022 14.3904C13.2691 14.3236 13.3066 14.2329 13.3066 14.1384Z" fill="#99AF61"/>
<path d="M21.8614 8.97751C21.8741 8.93406 21.8741 8.88789 21.8614 8.84444C21.8581 8.82176 21.8525 8.79947 21.8447 8.77791C21.835 8.75615 21.8231 8.73545 21.8091 8.71612C21.8016 8.70042 21.7928 8.68532 21.783 8.67098L21.7616 8.64959C21.5929 8.50939 18.0594 5.38702 14.0602 4.66226C14.2214 3.87014 14.3318 3.06849 14.3905 2.26226C14.3905 2.26226 14.3905 2.26226 14.3905 2.24801C14.3905 2.23375 14.3905 2.23137 14.3905 2.22187C14.3924 2.20052 14.3924 2.17905 14.3905 2.15771C14.3822 2.12596 14.3694 2.09556 14.3525 2.06741V2.05315C14.3354 2.02587 14.3146 2.00108 14.2907 1.97949C14.2682 1.96068 14.2434 1.94472 14.217 1.93197H14.2028C14.1753 1.9206 14.1466 1.91262 14.1172 1.9082H14.0198C12.8416 1.9986 11.6736 2.19181 10.5291 2.48563C8.74217 2.93711 6.25188 3.83296 4.54574 5.54147C1.61584 8.47137 3.35762 12.4326 3.46217 12.6559V12.6726C3.47296 12.6928 3.48569 12.7119 3.50019 12.7296L3.52396 12.7557L3.5691 12.7937L3.6 12.8128H3.619C4.55353 13.222 5.56198 13.4355 6.58217 13.4401C7.33784 13.4452 8.08766 13.3074 8.79207 13.0337V15.006C8.77954 15.7849 9.01413 16.5478 9.46217 17.185L9.92554 17.8219C10.2786 18.3352 10.4638 18.9454 10.4554 19.5684V22.9308C10.4554 23.0253 10.493 23.116 10.5598 23.1828C10.6267 23.2497 10.7173 23.2872 10.8119 23.2872C10.9064 23.2872 10.9971 23.2497 11.0639 23.1828C11.1308 23.116 11.1683 23.0253 11.1683 22.9308V19.5684C11.1808 18.7895 10.9463 18.0267 10.4982 17.3894L10.0348 16.7621C9.67986 16.2461 9.49463 15.6322 9.50495 15.006V9.62385C9.50495 9.52931 9.46739 9.43865 9.40055 9.37181C9.3337 9.30496 9.24304 9.26741 9.14851 9.26741C9.05398 9.26741 8.96332 9.30496 8.89647 9.37181C8.82963 9.43865 8.79207 9.52931 8.79207 9.62385V12.2567C7.07168 13.0504 5.26811 12.6345 4.42455 12.3541L13.5778 3.20563C13.375 4.80264 12.976 6.36853 12.3897 7.86781C12.3541 7.95541 12.3547 8.05356 12.3915 8.14069C12.4283 8.22781 12.4981 8.29675 12.5857 8.33236C12.6733 8.36797 12.7715 8.36732 12.8586 8.33055C12.9457 8.29379 13.0147 8.22392 13.0503 8.13632C13.4128 7.23633 13.7036 6.30909 13.92 5.36325C17.0756 5.92642 20.0198 8.14345 20.9632 8.91335C20.1386 9.57632 17.8455 11.311 15.2079 12.1403V9.62385C15.2079 9.52931 15.1704 9.43865 15.1035 9.37181C15.0367 9.30496 14.946 9.26741 14.8515 9.26741C14.7569 9.26741 14.6663 9.30496 14.5994 9.37181C14.5326 9.43865 14.495 9.52931 14.495 9.62385V15.006C14.5052 15.6322 14.32 16.246 13.9651 16.7621L13.5018 17.3894C13.0539 18.0267 12.8193 18.7895 12.8317 19.5684V22.9308C12.8317 23.0253 12.8692 23.116 12.9361 23.1828C13.0029 23.2497 13.0936 23.2872 13.1881 23.2872C13.2826 23.2872 13.3733 23.2497 13.4402 23.1828C13.507 23.116 13.5445 23.0253 13.5445 22.9308V19.5684C13.5364 18.9454 13.7215 18.3353 14.0745 17.8219L14.5378 17.1945C14.9876 16.5546 15.2223 15.7881 15.2079 15.006V12.884C18.7295 11.8504 21.6238 9.28642 21.7449 9.17711L21.7663 9.1581C21.7762 9.14375 21.7849 9.12866 21.7925 9.11296C21.8064 9.09363 21.8184 9.07293 21.8281 9.05117C21.8421 9.02802 21.8532 9.00329 21.8614 8.97751ZM13.0693 2.70187L7.12871 8.64246V4.51494C9.26732 3.35058 11.7315 2.88246 13.0693 2.70187ZM3.91841 11.8551C3.54772 10.7787 2.94891 8.11969 5.04712 6.02147C5.46378 5.61014 5.92254 5.24376 6.41584 4.9284V9.35771L3.91841 11.8551Z" fill="#99AF61"/>
</svg>
