<svg width="24" height="24" viewBox="0 0 24 24" fill="none" xmlns="http://www.w3.org/2000/svg">
<g clip-path="url(#clip0_221093_3219)">
<path d="M16.1885 8.59863C16.6027 8.59863 16.9385 8.26285 16.9385 7.84863C16.9385 7.43442 16.6027 7.09863 16.1885 7.09863C15.7743 7.09863 15.4385 7.43442 15.4385 7.84863C15.4385 8.26285 15.7743 8.59863 16.1885 8.59863Z" fill="#99AF61"/>
<path d="M12.2676 5.8125C12.8889 5.8125 13.3926 5.30882 13.3926 4.6875C13.3926 4.06618 12.8889 3.5625 12.2676 3.5625C11.6463 3.5625 11.1426 4.06618 11.1426 4.6875C11.1426 5.30882 11.6463 5.8125 12.2676 5.8125Z" fill="#99AF61"/>
<path d="M5.25 10.5C5.66421 10.5 6 10.1642 6 9.75C6 9.33579 5.66421 9 5.25 9C4.83579 9 4.5 9.33579 4.5 9.75C4.5 10.1642 4.83579 10.5 5.25 10.5Z" fill="#99AF61"/>
<path d="M12 23.25C14.225 23.25 16.4001 22.5902 18.2502 21.354C20.1002 20.1179 21.5422 18.3609 22.3936 16.3052C23.2451 14.2495 23.4679 11.9875 23.0338 9.80524C22.5998 7.62295 21.5283 5.61839 19.955 4.04505C18.3816 2.47171 16.3771 1.40025 14.1948 0.966171C12.0125 0.532087 9.75048 0.754875 7.69481 1.60636C5.63914 2.45785 3.88213 3.89979 2.64597 5.74984C1.4098 7.59989 0.75 9.77497 0.75 12C0.753375 14.9827 1.93972 17.8422 4.04878 19.9512C6.15783 22.0603 9.01735 23.2466 12 23.25ZM12 1.50001C14.0767 1.50001 16.1068 2.11582 17.8335 3.26957C19.5602 4.42333 20.906 6.0632 21.7007 7.98183C22.4955 9.90045 22.7034 12.0117 22.2982 14.0485C21.8931 16.0853 20.8931 17.9562 19.4246 19.4246C17.9562 20.8931 16.0852 21.8931 14.0484 22.2983C12.0116 22.7034 9.90045 22.4955 7.98182 21.7007C6.0632 20.906 4.42332 19.5602 3.26957 17.8335C2.11581 16.1068 1.5 14.0767 1.5 12C1.50318 9.21621 2.61044 6.54734 4.57889 4.57889C6.54733 2.61045 9.2162 1.50318 12 1.50001Z" fill="#99AF61"/>
<path d="M6.31725 18.3377C7.74225 19.2448 9.40125 19.4391 10.7336 19.5951C11.6396 19.7012 12.4961 19.8013 12.7151 20.1025C12.7655 20.1716 12.8381 20.2214 12.9207 20.2436C13.0033 20.2658 13.091 20.2591 13.1693 20.2246C13.2476 20.1901 13.3118 20.1299 13.3511 20.0539C13.3904 19.9779 13.4026 19.8908 13.3856 19.807C13.3721 19.7395 13.2506 19.147 13.0185 18.3332C13.0983 17.6937 13.2609 17.0674 13.5022 16.4698C13.6489 16.2606 14.2995 16.123 14.9317 15.9906C15.9589 15.7753 17.2365 15.508 18.2899 14.6961C19.8817 13.4691 20.1326 9.60283 20.1424 9.43895C20.1454 9.3886 20.1383 9.33814 20.1213 9.29062C20.1044 9.24309 20.0781 9.19946 20.0439 9.16235C20.0098 9.12524 19.9684 9.0954 19.9225 9.07463C19.8765 9.05385 19.8268 9.04257 19.7764 9.04145C19.6504 9.03958 16.6264 8.99645 14.61 11.0421C13.29 12.3816 12.8546 15.7585 12.8029 16.1976C12.7631 16.3018 12.663 16.5726 12.5587 16.906C12.4432 16.588 12.3154 16.2636 12.1755 15.9433C12.5815 14.5406 12.4634 13.038 11.8432 11.716C11.8912 11.191 12.0484 8.96458 11.3644 7.86958C10.2577 6.0992 8.1105 5.6522 8.01975 5.6342C7.97029 5.62433 7.91935 5.62454 7.86998 5.63482C7.8206 5.64509 7.77381 5.66522 7.73239 5.694C7.69098 5.72277 7.65579 5.75961 7.62894 5.8023C7.60209 5.84499 7.58413 5.89266 7.57612 5.94245C7.52887 6.23608 7.14187 8.84608 8.0715 9.9617C8.67362 10.6023 9.41442 11.0966 10.2371 11.4066C10.5649 11.5566 11.0621 11.7816 11.1022 11.9053C11.1107 11.9263 11.1211 11.9464 11.1334 11.9653L11.1296 11.9676C11.5589 12.8658 11.7334 13.8646 11.634 14.8551C11.3386 14.3062 10.9518 13.8116 10.4902 13.3926C7.6995 11.0301 3.86812 11.4283 3.70612 11.4463C3.656 11.452 3.60753 11.4677 3.56361 11.4925C3.5197 11.5173 3.48124 11.5507 3.45053 11.5907C3.41983 11.6307 3.39751 11.6765 3.38492 11.7254C3.37233 11.7742 3.36972 11.8251 3.37725 11.875C3.41212 12.0816 4.17225 16.9708 6.31725 18.3377ZM15.1444 11.5671C16.4944 10.195 18.4297 9.88183 19.3012 9.81095C18.1121 10.8291 14.97 13.5876 13.6961 15.3295C13.905 14.1887 14.3475 12.3752 15.1444 11.5671ZM11.1371 10.9127C10.6436 9.65495 9.06225 7.47883 8.32762 6.5012C9.30142 6.80534 10.146 7.42556 10.7276 8.2637C11.0996 8.8607 11.1611 10.0401 11.1371 10.9127ZM10.0057 13.9641C11.2519 15.0201 12.0799 17.6901 12.4414 19.0806C10.9069 17.2307 5.79037 13.3431 4.2165 12.1663C5.25525 12.1401 7.97475 12.2425 10.0069 13.9645L10.0057 13.9641Z" fill="#99AF61"/>
</g>
<defs>
<clipPath id="clip0_221093_3219">
<rect width="24" height="24" fill="white"/>
</clipPath>
</defs>
</svg>
