<svg width="469" height="196" viewBox="0 0 469 196" fill="none" xmlns="http://www.w3.org/2000/svg">
<path d="M116.816 41H120.272V73H116.816L116.72 66.44C115.632 68.6587 114.075 70.4507 112.048 71.816C110.043 73.16 107.632 73.832 104.816 73.832C102.491 73.832 100.304 73.3947 98.256 72.52C96.2293 71.624 94.4373 70.408 92.88 68.872C91.3227 67.3147 90.1067 65.5227 89.232 63.496C88.3573 61.448 87.92 59.2507 87.92 56.904C87.92 54.5787 88.3467 52.4027 89.2 50.376C90.0747 48.3493 91.28 46.568 92.816 45.032C94.352 43.4747 96.1333 42.2693 98.16 41.416C100.187 40.5413 102.352 40.104 104.656 40.104C107.493 40.104 109.947 40.7973 112.016 42.184C114.107 43.5493 115.739 45.3413 116.912 47.56L116.816 41ZM104.784 70.44C107.237 70.44 109.339 69.8427 111.088 68.648C112.859 67.432 114.213 65.8 115.152 63.752C116.091 61.704 116.56 59.4533 116.56 57C116.56 54.4827 116.08 52.2107 115.12 50.184C114.181 48.136 112.827 46.5147 111.056 45.32C109.307 44.104 107.216 43.496 104.784 43.496C102.309 43.496 100.059 44.104 98.032 45.32C96.0267 46.536 94.4267 48.168 93.232 50.216C92.0373 52.264 91.44 54.5253 91.44 57C91.44 59.5173 92.048 61.7893 93.264 63.816C94.5013 65.8427 96.1333 67.4533 98.16 68.648C100.187 69.8427 102.395 70.44 104.784 70.44ZM144.668 44.456H136.572L136.54 73H133.084L133.116 44.456H127.004V41H133.116L133.084 30.952H136.54L136.572 41H144.668V44.456ZM152.305 73V41H155.761V45.896C156.934 44.1253 158.46 42.7173 160.337 41.672C162.214 40.6267 164.284 40.104 166.545 40.104C169.02 40.104 171.27 40.7227 173.297 41.96C175.345 43.176 176.934 44.7973 178.065 46.824C179.196 44.7973 180.774 43.176 182.801 41.96C184.828 40.7227 187.078 40.104 189.553 40.104C191.985 40.104 194.204 40.7013 196.209 41.896C198.214 43.0693 199.804 44.6587 200.977 46.664C202.172 48.6693 202.769 50.888 202.769 53.32V73H199.313V53.96C199.313 52.104 198.865 50.3973 197.969 48.84C197.073 47.2613 195.868 45.992 194.353 45.032C192.838 44.072 191.153 43.592 189.297 43.592C187.462 43.592 185.777 44.04 184.241 44.936C182.726 45.8107 181.521 47.0267 180.625 48.584C179.729 50.1413 179.281 51.9333 179.281 53.96V73H175.825V53.96C175.825 51.9333 175.366 50.1413 174.449 48.584C173.553 47.0267 172.348 45.8107 170.833 44.936C169.318 44.04 167.633 43.592 165.777 43.592C163.942 43.592 162.268 44.072 160.753 45.032C159.238 45.992 158.022 47.2613 157.105 48.84C156.209 50.3973 155.761 52.104 155.761 53.96V73H152.305ZM237.451 41H240.907V73H237.451L237.355 66.44C236.267 68.6587 234.71 70.4507 232.683 71.816C230.678 73.16 228.267 73.832 225.451 73.832C223.126 73.832 220.939 73.3947 218.891 72.52C216.864 71.624 215.072 70.408 213.515 68.872C211.958 67.3147 210.742 65.5227 209.867 63.496C208.992 61.448 208.555 59.2507 208.555 56.904C208.555 54.5787 208.982 52.4027 209.835 50.376C210.71 48.3493 211.915 46.568 213.451 45.032C214.987 43.4747 216.768 42.2693 218.795 41.416C220.822 40.5413 222.987 40.104 225.291 40.104C228.128 40.104 230.582 40.7973 232.651 42.184C234.742 43.5493 236.374 45.3413 237.547 47.56L237.451 41ZM225.419 70.44C227.872 70.44 229.974 69.8427 231.723 68.648C233.494 67.432 234.848 65.8 235.787 63.752C236.726 61.704 237.195 59.4533 237.195 57C237.195 54.4827 236.715 52.2107 235.755 50.184C234.816 48.136 233.462 46.5147 231.691 45.32C229.942 44.104 227.851 43.496 225.419 43.496C222.944 43.496 220.694 44.104 218.667 45.32C216.662 46.536 215.062 48.168 213.867 50.216C212.672 52.264 212.075 54.5253 212.075 57C212.075 59.5173 212.683 61.7893 213.899 63.816C215.136 65.8427 216.768 67.4533 218.795 68.648C220.822 69.8427 223.03 70.44 225.419 70.44ZM249.207 73V41H252.663V45.896C253.815 44.1253 255.341 42.7173 257.239 41.672C259.138 40.6267 261.207 40.104 263.447 40.104C264.706 40.104 265.911 40.264 267.063 40.584L265.623 43.976C264.706 43.72 263.81 43.592 262.935 43.592C261.058 43.592 259.341 44.0507 257.783 44.968C256.226 45.8853 254.978 47.1227 254.039 48.68C253.122 50.2373 252.663 51.9653 252.663 53.864V73H249.207ZM306.255 40.104C309.348 40.104 312.164 40.8613 314.703 42.376C317.263 43.8907 319.3 45.928 320.815 48.488C322.33 51.0267 323.087 53.8533 323.087 56.968C323.087 59.2933 322.65 61.48 321.775 63.528C320.9 65.5547 319.684 67.3467 318.127 68.904C316.591 70.44 314.81 71.6453 312.783 72.52C310.756 73.3947 308.58 73.832 306.255 73.832C303.418 73.832 300.975 73.1493 298.927 71.784C296.9 70.4187 295.322 68.6267 294.191 66.408V73H290.735V25H294.191V47.528C295.322 45.3093 296.9 43.5173 298.927 42.152C300.975 40.7867 303.418 40.104 306.255 40.104ZM306.223 70.44C308.698 70.44 310.938 69.832 312.943 68.616C314.97 67.4 316.58 65.7787 317.775 63.752C318.991 61.704 319.599 59.4427 319.599 56.968C319.599 54.4507 318.98 52.1787 317.743 50.152C316.506 48.104 314.874 46.4827 312.847 45.288C310.842 44.0933 308.634 43.496 306.223 43.496C303.77 43.496 301.658 44.104 299.887 45.32C298.138 46.536 296.794 48.168 295.855 50.216C294.916 52.264 294.447 54.5147 294.447 56.968C294.447 59.4853 294.916 61.7573 295.855 63.784C296.815 65.8107 298.17 67.432 299.919 68.648C301.69 69.8427 303.791 70.44 306.223 70.44ZM330.405 41H333.861V73H330.405V41ZM332.165 34.952C331.568 34.952 331.056 34.76 330.629 34.376C330.224 33.9707 330.021 33.4693 330.021 32.872C330.021 32.2747 330.224 31.784 330.629 31.4C331.056 30.9947 331.568 30.792 332.165 30.792C332.741 30.792 333.232 30.9947 333.637 31.4C334.064 31.784 334.277 32.2747 334.277 32.872C334.277 33.4693 334.074 33.9707 333.669 34.376C333.264 34.76 332.762 34.952 332.165 34.952ZM357.343 73.832C354.399 73.832 351.711 73.0747 349.279 71.56C346.868 70.0453 344.937 68.0187 343.487 65.48C342.057 62.92 341.343 60.0933 341.343 57C341.343 54.6533 341.759 52.4667 342.591 50.44C343.423 48.392 344.564 46.6 346.015 45.064C347.487 43.5067 349.193 42.2907 351.135 41.416C353.076 40.5413 355.145 40.104 357.343 40.104C360.287 40.104 362.964 40.8613 365.375 42.376C367.807 43.8907 369.737 45.928 371.167 48.488C372.617 51.048 373.343 53.8853 373.343 57C373.343 59.3253 372.927 61.5013 372.095 63.528C371.263 65.5547 370.111 67.3467 368.639 68.904C367.188 70.44 365.492 71.6453 363.551 72.52C361.631 73.3947 359.561 73.832 357.343 73.832ZM357.343 70.376C359.711 70.376 361.833 69.7573 363.711 68.52C365.609 67.2827 367.113 65.6507 368.223 63.624C369.332 61.5973 369.887 59.3893 369.887 57C369.887 54.5893 369.332 52.36 368.223 50.312C367.113 48.264 365.609 46.632 363.711 45.416C361.812 44.1787 359.689 43.56 357.343 43.56C354.975 43.56 352.841 44.1787 350.943 45.416C349.044 46.6533 347.54 48.296 346.431 50.344C345.343 52.3707 344.799 54.5893 344.799 57C344.799 59.496 345.364 61.7573 346.495 63.784C347.647 65.7893 349.172 67.3893 351.071 68.584C352.969 69.7787 355.06 70.376 357.343 70.376Z" fill="#4A4387"/>
<path d="M151.636 162.676V166H155.344V167.296H151.636V178H150.34V167.296H148.6V166H150.34V162.676C150.34 162.132 150.472 161.636 150.736 161.188C151.008 160.74 151.368 160.384 151.816 160.12C152.272 159.848 152.772 159.712 153.316 159.712C153.716 159.712 154.1 159.792 154.468 159.952C154.836 160.104 155.164 160.328 155.452 160.624L154.528 161.536C154.384 161.368 154.204 161.24 153.988 161.152C153.772 161.056 153.548 161.008 153.316 161.008C152.86 161.008 152.464 161.172 152.128 161.5C151.8 161.828 151.636 162.22 151.636 162.676ZM162.243 178.312C161.139 178.312 160.131 178.028 159.219 177.46C158.315 176.892 157.591 176.132 157.047 175.18C156.511 174.22 156.243 173.16 156.243 172C156.243 171.12 156.399 170.3 156.711 169.54C157.023 168.772 157.451 168.1 157.995 167.524C158.547 166.94 159.187 166.484 159.915 166.156C160.643 165.828 161.419 165.664 162.243 165.664C163.347 165.664 164.351 165.948 165.255 166.516C166.167 167.084 166.891 167.848 167.427 168.808C167.971 169.768 168.243 170.832 168.243 172C168.243 172.872 168.087 173.688 167.775 174.448C167.463 175.208 167.031 175.88 166.479 176.464C165.935 177.04 165.299 177.492 164.571 177.82C163.851 178.148 163.075 178.312 162.243 178.312ZM162.243 177.016C163.131 177.016 163.927 176.784 164.631 176.32C165.343 175.856 165.907 175.244 166.323 174.484C166.739 173.724 166.947 172.896 166.947 172C166.947 171.096 166.739 170.26 166.323 169.492C165.907 168.724 165.343 168.112 164.631 167.656C163.919 167.192 163.123 166.96 162.243 166.96C161.355 166.96 160.555 167.192 159.843 167.656C159.131 168.12 158.567 168.736 158.151 169.504C157.743 170.264 157.539 171.096 157.539 172C157.539 172.936 157.751 173.784 158.175 174.544C158.607 175.296 159.179 175.896 159.891 176.344C160.603 176.792 161.387 177.016 162.243 177.016ZM175.439 178.312C174.335 178.312 173.327 178.028 172.415 177.46C171.511 176.892 170.787 176.132 170.243 175.18C169.707 174.22 169.439 173.16 169.439 172C169.439 171.12 169.595 170.3 169.907 169.54C170.219 168.772 170.647 168.1 171.191 167.524C171.743 166.94 172.383 166.484 173.111 166.156C173.839 165.828 174.615 165.664 175.439 165.664C176.543 165.664 177.547 165.948 178.451 166.516C179.363 167.084 180.087 167.848 180.623 168.808C181.167 169.768 181.439 170.832 181.439 172C181.439 172.872 181.283 173.688 180.971 174.448C180.659 175.208 180.227 175.88 179.675 176.464C179.131 177.04 178.495 177.492 177.767 177.82C177.047 178.148 176.271 178.312 175.439 178.312ZM175.439 177.016C176.327 177.016 177.123 176.784 177.827 176.32C178.539 175.856 179.103 175.244 179.519 174.484C179.935 173.724 180.143 172.896 180.143 172C180.143 171.096 179.935 170.26 179.519 169.492C179.103 168.724 178.539 168.112 177.827 167.656C177.115 167.192 176.319 166.96 175.439 166.96C174.551 166.96 173.751 167.192 173.039 167.656C172.327 168.12 171.763 168.736 171.347 169.504C170.939 170.264 170.735 171.096 170.735 172C170.735 172.936 170.947 173.784 171.371 174.544C171.803 175.296 172.375 175.896 173.087 176.344C173.799 176.792 174.583 177.016 175.439 177.016ZM193.47 160H194.766V178H193.47V175.528C193.054 176.368 192.462 177.044 191.694 177.556C190.926 178.06 190.01 178.312 188.946 178.312C188.074 178.312 187.258 178.148 186.498 177.82C185.738 177.492 185.066 177.04 184.482 176.464C183.906 175.88 183.454 175.208 183.126 174.448C182.798 173.688 182.634 172.872 182.634 172C182.634 171.128 182.798 170.312 183.126 169.552C183.454 168.784 183.906 168.112 184.482 167.536C185.066 166.952 185.738 166.496 186.498 166.168C187.258 165.84 188.074 165.676 188.946 165.676C190.01 165.676 190.926 165.932 191.694 166.444C192.462 166.948 193.054 167.616 193.47 168.448V160ZM188.958 177.04C189.878 177.04 190.666 176.816 191.322 176.368C191.986 175.912 192.494 175.3 192.846 174.532C193.198 173.764 193.374 172.92 193.374 172C193.374 171.056 193.194 170.204 192.834 169.444C192.482 168.676 191.974 168.068 191.31 167.62C190.654 167.164 189.87 166.936 188.958 166.936C188.038 166.936 187.198 167.164 186.438 167.62C185.686 168.076 185.082 168.688 184.626 169.456C184.178 170.224 183.954 171.072 183.954 172C183.954 172.944 184.182 173.796 184.638 174.556C185.102 175.316 185.714 175.92 186.474 176.368C187.234 176.816 188.062 177.04 188.958 177.04ZM203.417 166H204.713V178H203.417V166ZM204.077 163.732C203.853 163.732 203.661 163.66 203.501 163.516C203.349 163.364 203.273 163.176 203.273 162.952C203.273 162.728 203.349 162.544 203.501 162.4C203.661 162.248 203.853 162.172 204.077 162.172C204.293 162.172 204.477 162.248 204.629 162.4C204.789 162.544 204.869 162.728 204.869 162.952C204.869 163.176 204.793 163.364 204.641 163.516C204.489 163.66 204.301 163.732 204.077 163.732ZM217.861 170.62V178H216.565V170.824C216.565 170.112 216.393 169.464 216.049 168.88C215.705 168.296 215.241 167.832 214.657 167.488C214.073 167.144 213.425 166.972 212.713 166.972C212.009 166.972 211.365 167.144 210.781 167.488C210.197 167.832 209.729 168.296 209.377 168.88C209.033 169.464 208.861 170.112 208.861 170.824V178H207.565V166H208.861V167.836C209.293 167.172 209.865 166.644 210.577 166.252C211.289 165.86 212.065 165.664 212.905 165.664C213.825 165.664 214.657 165.888 215.401 166.336C216.153 166.776 216.749 167.372 217.189 168.124C217.637 168.876 217.861 169.708 217.861 170.62ZM229.766 166H231.062V178.504C231.062 179.248 230.898 179.948 230.57 180.604C230.25 181.268 229.814 181.852 229.262 182.356C228.71 182.868 228.082 183.268 227.378 183.556C226.682 183.852 225.962 184 225.218 184C224.386 184 223.582 183.804 222.806 183.412C222.03 183.028 221.358 182.512 220.79 181.864C220.23 181.216 219.842 180.508 219.626 179.74L220.826 179.188C220.97 179.836 221.266 180.424 221.714 180.952C222.162 181.488 222.694 181.912 223.31 182.224C223.934 182.536 224.57 182.692 225.218 182.692C225.794 182.692 226.354 182.58 226.898 182.356C227.442 182.132 227.93 181.824 228.362 181.432C228.794 181.048 229.134 180.604 229.382 180.1C229.638 179.596 229.766 179.064 229.766 178.504V175.564C229.342 176.38 228.754 177.044 228.002 177.556C227.25 178.06 226.374 178.312 225.374 178.312C224.542 178.312 223.758 178.148 223.022 177.82C222.286 177.492 221.642 177.04 221.09 176.464C220.538 175.88 220.102 175.208 219.782 174.448C219.47 173.688 219.314 172.872 219.314 172C219.314 171.128 219.47 170.312 219.782 169.552C220.102 168.784 220.538 168.112 221.09 167.536C221.642 166.952 222.286 166.496 223.022 166.168C223.758 165.84 224.542 165.676 225.374 165.676C226.374 165.676 227.25 165.928 228.002 166.432C228.754 166.928 229.342 167.592 229.766 168.424V166ZM225.386 177.04C226.282 177.04 227.05 176.808 227.69 176.344C228.338 175.88 228.834 175.264 229.178 174.496C229.53 173.728 229.706 172.896 229.706 172C229.706 171.08 229.53 170.24 229.178 169.48C228.826 168.712 228.326 168.096 227.678 167.632C227.03 167.168 226.266 166.936 225.386 166.936C224.506 166.936 223.706 167.164 222.986 167.62C222.266 168.076 221.694 168.688 221.27 169.456C220.846 170.224 220.634 171.072 220.634 172C220.634 172.936 220.85 173.784 221.282 174.544C221.714 175.304 222.29 175.912 223.01 176.368C223.73 176.816 224.522 177.04 225.386 177.04ZM233.932 178V166H235.228V167.836C235.66 167.172 236.232 166.644 236.944 166.252C237.656 165.86 238.432 165.664 239.272 165.664C239.744 165.664 240.196 165.724 240.628 165.844L240.088 167.116C239.744 167.02 239.408 166.972 239.08 166.972C238.376 166.972 237.732 167.144 237.148 167.488C236.564 167.832 236.096 168.296 235.744 168.88C235.4 169.464 235.228 170.112 235.228 170.824V178H233.932ZM246.806 178.312C245.702 178.312 244.694 178.028 243.782 177.46C242.878 176.892 242.154 176.132 241.61 175.18C241.074 174.22 240.806 173.16 240.806 172C240.806 171.12 240.962 170.3 241.274 169.54C241.586 168.772 242.014 168.1 242.558 167.524C243.11 166.94 243.75 166.484 244.478 166.156C245.206 165.828 245.982 165.664 246.806 165.664C247.678 165.664 248.482 165.836 249.218 166.18C249.962 166.516 250.602 166.992 251.138 167.608C251.674 168.224 252.086 168.952 252.374 169.792C252.662 170.624 252.794 171.536 252.77 172.528H242.162C242.25 173.384 242.506 174.152 242.93 174.832C243.362 175.504 243.914 176.036 244.586 176.428C245.258 176.812 245.998 177.008 246.806 177.016C247.694 177.016 248.494 176.784 249.206 176.32C249.918 175.848 250.49 175.204 250.922 174.388L252.23 174.688C251.75 175.752 251.026 176.624 250.058 177.304C249.09 177.976 248.006 178.312 246.806 178.312ZM242.126 171.424H251.462C251.414 170.6 251.174 169.844 250.742 169.156C250.318 168.46 249.762 167.904 249.074 167.488C248.386 167.072 247.63 166.864 246.806 166.864C245.982 166.864 245.23 167.068 244.55 167.476C243.87 167.884 243.314 168.436 242.882 169.132C242.458 169.82 242.206 170.584 242.126 171.424ZM264.814 160H266.11V178H264.814V175.528C264.398 176.368 263.806 177.044 263.038 177.556C262.27 178.06 261.354 178.312 260.29 178.312C259.418 178.312 258.602 178.148 257.842 177.82C257.082 177.492 256.41 177.04 255.826 176.464C255.25 175.88 254.798 175.208 254.47 174.448C254.142 173.688 253.978 172.872 253.978 172C253.978 171.128 254.142 170.312 254.47 169.552C254.798 168.784 255.25 168.112 255.826 167.536C256.41 166.952 257.082 166.496 257.842 166.168C258.602 165.84 259.418 165.676 260.29 165.676C261.354 165.676 262.27 165.932 263.038 166.444C263.806 166.948 264.398 167.616 264.814 168.448V160ZM260.302 177.04C261.222 177.04 262.01 176.816 262.666 176.368C263.33 175.912 263.838 175.3 264.19 174.532C264.542 173.764 264.718 172.92 264.718 172C264.718 171.056 264.538 170.204 264.178 169.444C263.826 168.676 263.318 168.068 262.654 167.62C261.998 167.164 261.214 166.936 260.302 166.936C259.382 166.936 258.542 167.164 257.782 167.62C257.03 168.076 256.426 168.688 255.97 169.456C255.522 170.224 255.298 171.072 255.298 172C255.298 172.944 255.526 173.796 255.982 174.556C256.446 175.316 257.058 175.92 257.818 176.368C258.578 176.816 259.406 177.04 260.302 177.04ZM268.995 166H270.291V178H268.995V166ZM269.655 163.732C269.431 163.732 269.239 163.66 269.079 163.516C268.927 163.364 268.851 163.176 268.851 162.952C268.851 162.728 268.927 162.544 269.079 162.4C269.239 162.248 269.431 162.172 269.655 162.172C269.871 162.172 270.055 162.248 270.207 162.4C270.367 162.544 270.447 162.728 270.447 162.952C270.447 163.176 270.371 163.364 270.219 163.516C270.067 163.66 269.879 163.732 269.655 163.732ZM278.376 178.312C277.272 178.312 276.264 178.028 275.352 177.46C274.448 176.892 273.724 176.132 273.18 175.18C272.644 174.22 272.376 173.16 272.376 172C272.376 171.12 272.532 170.3 272.844 169.54C273.156 168.772 273.584 168.1 274.128 167.524C274.68 166.94 275.32 166.484 276.048 166.156C276.776 165.828 277.552 165.664 278.376 165.664C279.248 165.664 280.052 165.836 280.788 166.18C281.532 166.516 282.172 166.992 282.708 167.608C283.244 168.224 283.656 168.952 283.944 169.792C284.232 170.624 284.364 171.536 284.34 172.528H273.732C273.82 173.384 274.076 174.152 274.5 174.832C274.932 175.504 275.484 176.036 276.156 176.428C276.828 176.812 277.568 177.008 278.376 177.016C279.264 177.016 280.064 176.784 280.776 176.32C281.488 175.848 282.06 175.204 282.492 174.388L283.8 174.688C283.32 175.752 282.596 176.624 281.628 177.304C280.66 177.976 279.576 178.312 278.376 178.312ZM273.696 171.424H283.032C282.984 170.6 282.744 169.844 282.312 169.156C281.888 168.46 281.332 167.904 280.644 167.488C279.956 167.072 279.2 166.864 278.376 166.864C277.552 166.864 276.8 167.068 276.12 167.476C275.44 167.884 274.884 168.436 274.452 169.132C274.028 169.82 273.776 170.584 273.696 171.424ZM296.728 170.62V178H295.432V170.824C295.432 170.112 295.26 169.464 294.916 168.88C294.572 168.296 294.108 167.832 293.524 167.488C292.94 167.144 292.292 166.972 291.58 166.972C290.876 166.972 290.232 167.144 289.648 167.488C289.064 167.832 288.596 168.296 288.244 168.88C287.9 169.464 287.728 170.112 287.728 170.824V178H286.432V166H287.728V167.836C288.16 167.172 288.732 166.644 289.444 166.252C290.156 165.86 290.932 165.664 291.772 165.664C292.692 165.664 293.524 165.888 294.268 166.336C295.02 166.776 295.616 167.372 296.056 168.124C296.504 168.876 296.728 169.708 296.728 170.62ZM305.171 167.296H302.135L302.123 178H300.827L300.839 167.296H298.547V166H300.839L300.827 162.232H302.123L302.135 166H305.171V167.296ZM311.001 178.228C310.337 178.22 309.685 178.104 309.045 177.88C308.413 177.648 307.861 177.34 307.389 176.956C306.917 176.572 306.589 176.136 306.405 175.648L307.545 175.156C307.681 175.516 307.941 175.84 308.325 176.128C308.717 176.416 309.157 176.644 309.645 176.812C310.141 176.972 310.625 177.052 311.097 177.052C311.633 177.052 312.137 176.96 312.609 176.776C313.081 176.592 313.465 176.332 313.761 175.996C314.057 175.66 314.205 175.264 314.205 174.808C314.205 174.328 314.049 173.952 313.737 173.68C313.425 173.4 313.025 173.176 312.537 173.008C312.057 172.832 311.561 172.668 311.049 172.516C310.169 172.26 309.405 172 308.757 171.736C308.117 171.464 307.621 171.12 307.269 170.704C306.917 170.288 306.741 169.74 306.741 169.06C306.741 168.356 306.945 167.744 307.353 167.224C307.761 166.704 308.297 166.304 308.961 166.024C309.625 165.736 310.337 165.592 311.097 165.592C312.081 165.592 312.973 165.808 313.773 166.24C314.581 166.672 315.149 167.24 315.477 167.944L314.421 168.568C314.261 168.2 314.009 167.884 313.665 167.62C313.321 167.356 312.929 167.152 312.489 167.008C312.049 166.864 311.605 166.788 311.157 166.78C310.597 166.772 310.073 166.86 309.585 167.044C309.105 167.22 308.717 167.48 308.421 167.824C308.125 168.16 307.977 168.568 307.977 169.048C307.977 169.528 308.113 169.896 308.385 170.152C308.657 170.408 309.037 170.616 309.525 170.776C310.013 170.928 310.577 171.108 311.217 171.316C311.961 171.548 312.653 171.808 313.293 172.096C313.941 172.376 314.461 172.728 314.853 173.152C315.253 173.576 315.449 174.124 315.441 174.796C315.441 175.5 315.229 176.112 314.805 176.632C314.389 177.152 313.841 177.552 313.161 177.832C312.489 178.112 311.769 178.244 311.001 178.228Z" fill="#4A4387"/>
<path d="M28 120C25.7909 120 24 121.791 24 124C24 126.209 25.7909 128 28 128V124V120ZM443.828 126.828C445.391 125.266 445.391 122.734 443.828 121.172L418.373 95.7157C416.81 94.1536 414.278 94.1536 412.716 95.7157C411.154 97.2778 411.154 99.8105 412.716 101.373L435.343 124L412.716 146.627C411.154 148.19 411.154 150.722 412.716 152.284C414.278 153.846 416.81 153.846 418.373 152.284L443.828 126.828ZM28 124V128H441V124V120H28V124Z" fill="#CCE981"/>
</svg>
